<?xml version="1.0" standalone="no"?>
<!DOCTYPE svg PUBLIC "-//W3C//DTD SVG 20010904//EN"
 "http://www.w3.org/TR/2001/REC-SVG-20010904/DTD/svg10.dtd">
<svg version="1.0" xmlns="http://www.w3.org/2000/svg"
 width="387.000000pt" height="387.000000pt" viewBox="0 0 387.000000 387.000000"
 preserveAspectRatio="xMidYMid meet">
<metadata>
Created by potrace 1.14, written by Peter Selinger 2001-2017
</metadata>
<g transform="translate(0.000000,387.000000) scale(0.100000,-0.100000)"
fill="#000000" stroke="none">
<path d="M577 3112 c-9 -2 -15 -7 -13 -11 3 -4 -17 -7 -44 -6 -32 2 -50 -2
-54 -10 -2 -7 -16 -11 -30 -10 -15 2 -32 -2 -39 -9 -7 -7 -23 -12 -36 -11 -12
1 -25 -3 -27 -9 -3 -7 -14 -13 -26 -13 -12 -1 -25 -9 -30 -17 -5 -8 -15 -13
-24 -9 -9 3 -24 -4 -35 -16 -11 -12 -24 -19 -28 -17 -4 3 -19 -5 -32 -17 -13
-12 -27 -21 -31 -19 -5 1 -8 -3 -8 -9 0 -6 -7 -8 -16 -5 -8 3 -12 2 -9 -3 3
-5 -3 -12 -14 -16 -13 -4 -18 -13 -16 -25 2 -11 0 -20 -4 -20 -4 0 -8 -7 -8
-15 0 -8 3 -15 7 -15 3 0 6 -9 6 -19 0 -11 -4 -17 -8 -15 -4 3 -8 0 -8 -5 0
-6 5 -11 10 -11 6 0 10 -5 10 -11 0 -5 -4 -8 -9 -5 -4 3 -7 -8 -5 -24 2 -19
-1 -30 -9 -30 -6 0 -4 -5 6 -11 9 -5 17 -15 17 -20 0 -6 -4 -8 -8 -5 -5 3 -9
-1 -9 -9 0 -8 4 -15 9 -15 4 0 8 -5 8 -11 0 -5 -4 -8 -8 -5 -5 3 -9 -1 -9 -9
0 -8 3 -12 7 -10 4 2 7 -2 7 -10 0 -8 -4 -12 -9 -9 -4 3 -8 0 -8 -5 0 -6 8
-11 18 -12 14 0 14 -2 -3 -9 -12 -5 -14 -9 -6 -9 11 -1 10 -6 -5 -22 -10 -11
-14 -20 -9 -19 22 5 27 -1 15 -15 -10 -11 -9 -18 4 -30 8 -9 19 -15 23 -13 14
4 31 23 27 30 -2 3 6 4 18 0 14 -3 19 -2 14 6 -6 11 13 17 37 13 5 -1 6 3 2 9
-3 5 1 10 10 10 8 0 18 6 21 14 3 8 12 12 20 9 9 -3 14 0 12 7 -2 7 5 14 15
15 10 2 28 14 40 27 13 14 28 23 35 20 7 -2 12 2 12 9 0 7 3 10 6 6 3 -3 17 6
30 20 13 14 24 23 24 19 0 -4 12 -1 28 7 30 16 67 32 95 41 11 4 15 11 11 18
-6 10 -4 10 8 0 11 -9 18 -10 23 -2 3 6 11 7 17 4 6 -4 14 0 19 7 7 11 9 11 9
1 0 -8 5 -10 13 -5 6 4 23 9 35 11 17 2 22 -1 16 -10 -6 -10 -4 -10 9 1 9 7
26 11 37 8 11 -3 20 -2 20 3 0 4 11 5 25 2 14 -2 22 -8 20 -13 -3 -4 7 -2 22
6 16 9 31 11 36 6 5 -5 16 -7 23 -4 8 3 14 1 14 -5 0 -5 16 -10 36 -10 20 0
40 -5 44 -12 6 -9 9 -9 13 1 4 10 6 9 6 -3 1 -11 6 -15 16 -11 9 3 24 -2 34
-11 10 -9 21 -13 24 -9 4 3 7 1 7 -5 0 -7 9 -12 21 -12 11 0 17 -4 14 -10 -5
-9 16 -15 38 -11 5 1 6 -3 2 -9 -3 -5 0 -10 7 -10 8 0 20 -9 28 -19 7 -11 17
-18 22 -15 4 3 8 0 8 -6 0 -6 5 -8 10 -5 6 3 10 1 10 -4 0 -6 7 -11 15 -11 7
0 18 -6 22 -12 4 -7 23 -24 42 -37 19 -13 30 -18 26 -11 -6 9 -3 9 14 1 11 -7
21 -16 21 -20 0 -5 11 -12 25 -15 17 -4 23 -11 19 -19 -4 -7 -4 -9 1 -5 4 4
15 2 23 -5 12 -9 14 -9 8 0 -8 14 55 -16 66 -32 4 -5 8 -7 8 -2 0 4 14 0 31
-9 18 -9 28 -11 24 -4 -6 9 -2 9 14 1 12 -7 26 -9 31 -6 6 4 9 1 8 -6 -2 -6 3
-14 10 -16 6 -3 12 0 12 7 0 6 5 8 13 3 6 -4 23 -8 35 -9 13 0 27 -5 30 -10 4
-5 36 -9 72 -8 36 0 69 -2 75 -5 17 -9 46 -8 51 1 3 5 13 3 22 -4 9 -7 13 -8
10 -2 -5 7 24 10 87 9 51 0 91 3 89 6 -2 4 3 10 12 13 8 3 12 2 9 -4 -3 -6 -1
-10 4 -10 6 0 11 5 11 10 0 6 11 8 25 6 14 -3 25 0 25 5 0 6 5 7 10 4 6 -3 10
-1 10 5 0 6 4 9 9 6 5 -3 27 1 50 9 23 8 41 11 41 8 0 -4 7 2 16 13 8 10 12
12 8 4 -7 -13 -5 -13 9 -2 9 8 22 10 29 6 7 -4 10 -4 6 1 -10 10 29 39 55 40
10 1 22 6 25 11 4 5 16 16 26 24 18 13 19 13 12 0 -4 -8 5 -1 19 15 15 17 24
24 20 16 -5 -9 1 -8 19 4 14 10 26 21 26 26 0 5 6 8 13 7 6 -2 11 2 10 9 -2 7
4 10 12 7 8 -4 17 1 21 10 3 9 10 13 15 10 5 -3 9 -1 9 5 0 5 9 13 20 16 12 4
17 11 13 18 -4 8 -1 8 9 -1 13 -11 19 -8 38 15 12 15 19 23 16 16 -5 -8 0 -8
19 0 14 7 25 16 25 20 0 5 5 5 10 2 6 -3 10 0 10 7 0 11 2 10 9 0 7 -11 9 -10
15 3 3 9 11 13 17 9 6 -3 15 0 20 7 7 12 9 12 9 0 0 -9 4 -10 13 -4 6 6 22 9
34 8 13 -1 19 3 16 8 -4 6 0 8 10 4 10 -4 17 -1 17 6 0 7 7 3 15 -7 9 -12 15
-14 15 -7 0 9 14 12 50 9 28 -1 52 2 54 7 3 6 5 5 5 -1 1 -6 12 -9 26 -6 14 2
33 -2 42 -9 12 -10 14 -10 9 -1 -4 6 -3 12 3 12 5 0 13 -4 16 -10 3 -5 17 -10
31 -10 14 0 39 -7 55 -16 17 -8 33 -13 36 -10 4 3 12 -2 20 -12 10 -11 12 -12
8 -2 -4 10 -2 9 8 -2 8 -10 17 -15 20 -11 4 3 7 1 7 -6 0 -7 5 -9 10 -6 5 3
10 2 10 -4 0 -8 32 -24 52 -26 4 0 14 -9 22 -20 9 -11 16 -17 16 -12 0 4 13
-5 30 -19 16 -15 27 -31 23 -37 -3 -6 -1 -7 6 -3 6 4 9 13 5 19 -3 7 2 3 10
-7 9 -11 16 -16 16 -10 0 5 5 1 11 -9 6 -9 14 -15 20 -12 5 4 9 -1 9 -9 0 -8
6 -13 13 -10 7 2 23 -5 35 -16 12 -11 22 -17 22 -13 0 4 4 4 8 -2 4 -5 17 -16
30 -23 27 -15 64 0 56 23 -4 8 -10 12 -15 9 -5 -3 -6 2 -3 10 3 9 9 14 14 11
4 -2 5 7 2 21 -3 19 -7 22 -13 12 -6 -9 -9 -9 -9 -1 0 6 4 14 10 18 5 3 6 13
3 22 -4 10 -2 14 4 10 12 -7 10 29 -2 40 -4 5 -5 2 -1 -4 4 -7 2 -13 -3 -13
-14 0 -14 17 -1 25 11 7 9 33 -4 54 -6 9 -5 12 2 7 6 -3 13 -2 17 4 3 5 -2 10
-11 10 -17 0 -16 1 1 13 14 11 15 16 5 22 -9 6 -11 4 -5 -5 6 -9 4 -11 -4 -5
-9 5 -10 10 -2 18 13 13 15 51 3 43 -5 -3 -9 1 -9 8 0 9 7 12 16 8 14 -5 14
-3 3 10 -10 13 -10 17 0 21 8 4 7 6 -4 6 -10 1 -18 6 -18 12 0 16 -42 48 -63
49 -10 0 -15 5 -12 10 3 6 -1 10 -10 10 -8 0 -18 6 -21 14 -3 8 -12 12 -20 9
-8 -3 -14 0 -14 6 0 6 -7 11 -15 11 -8 0 -15 4 -15 10 0 5 -6 7 -14 4 -8 -3
-17 0 -22 7 -5 8 -3 10 6 4 9 -5 11 -4 6 4 -4 6 -11 9 -16 6 -13 -8 -41 6 -34
17 3 5 0 9 -7 7 -27 -3 -50 1 -46 9 3 4 -6 8 -20 9 -14 0 -28 5 -32 10 -3 5
-14 9 -23 10 -10 0 -27 1 -39 2 -11 0 -18 5 -15 9 3 5 -7 9 -22 9 -64 1 -83 4
-78 11 3 5 -1 9 -9 9 -8 0 -11 -5 -8 -10 4 -6 1 -7 -8 -1 -15 10 -278 15 -294
5 -16 -9 -39 -7 -47 4 -5 6 -8 4 -8 -5 0 -11 -11 -15 -45 -15 -25 1 -45 -2
-45 -5 0 -7 -10 -9 -55 -12 -14 -1 -25 -8 -25 -15 0 -9 -11 -12 -35 -10 -26 3
-33 1 -25 -7 7 -9 2 -12 -18 -12 -18 1 -26 -4 -24 -13 2 -8 -3 -11 -12 -8 -9
4 -21 1 -28 -6 -8 -7 -20 -13 -28 -15 -8 -2 -18 -9 -22 -15 -4 -6 -10 -8 -14
-4 -4 3 -15 -3 -25 -14 -10 -12 -25 -19 -33 -16 -10 4 -13 1 -9 -9 3 -8 -1
-14 -11 -14 -9 0 -16 -5 -16 -10 0 -6 -4 -9 -9 -8 -5 2 -17 -6 -26 -17 -9 -11
-14 -14 -10 -7 3 6 1 12 -4 12 -6 0 -11 -7 -11 -16 0 -8 -4 -13 -9 -9 -6 3
-14 -3 -20 -12 -6 -10 -11 -13 -11 -8 0 6 -5 3 -10 -5 -5 -8 -15 -15 -22 -15
-7 -1 -12 -6 -11 -12 2 -7 -6 -10 -17 -8 -11 2 -20 0 -20 -5 0 -8 -54 -33 -75
-34 -5 -1 -16 -7 -24 -14 -8 -8 -27 -12 -42 -10 -15 3 -27 0 -26 -5 3 -14 -55
-18 -72 -4 -12 9 -13 9 -7 0 7 -13 -3 -15 -79 -15 -16 0 -39 3 -49 8 -15 6
-17 4 -11 -7 6 -11 5 -11 -5 -2 -7 6 -19 9 -26 6 -8 -3 -22 1 -31 8 -9 8 -14
9 -10 3 4 -7 0 -15 -9 -18 -8 -3 -12 -2 -9 3 7 13 -4 18 -45 22 -19 2 -38 7
-41 12 -3 5 -12 9 -20 11 -8 1 -23 7 -34 13 -11 5 -26 8 -32 6 -7 -3 -13 0
-13 7 0 6 -16 18 -35 26 -19 8 -35 19 -35 25 0 6 -7 9 -15 5 -11 -4 -15 1 -15
17 0 16 -3 18 -9 9 -7 -11 -9 -10 -15 3 -3 9 -10 13 -16 10 -6 -3 -14 4 -19
17 -6 13 -10 16 -11 8 0 -9 -3 -11 -8 -5 -14 20 -56 50 -47 35 4 -8 -6 -2 -23
14 -18 17 -32 26 -32 20 0 -5 -7 0 -15 10 -8 11 -15 16 -15 12 0 -5 -7 -3 -15
4 -8 6 -20 8 -26 4 -8 -4 -9 -3 -5 4 4 7 1 12 -8 12 -9 0 -16 4 -16 10 0 5 -7
7 -15 4 -8 -4 -17 1 -21 9 -3 9 -12 13 -20 10 -8 -3 -20 0 -28 6 -7 6 -16 8
-19 4 -4 -3 -7 -2 -7 4 0 6 -10 10 -22 10 -13 0 -36 5 -53 12 -16 7 -37 10
-47 8 -9 -3 -27 2 -39 11 -15 10 -20 11 -14 2 6 -10 4 -11 -6 -4 -13 9 -314
14 -352 6z"/>
<path d="M611 2331 c-8 -5 -20 -7 -27 -4 -7 2 -22 -1 -34 -7 -15 -8 -20 -8
-16 -1 4 6 2 11 -3 11 -6 0 -11 -5 -11 -11 0 -5 -4 -7 -10 -4 -5 3 -10 2 -10
-3 0 -5 -13 -8 -30 -7 -16 1 -30 0 -30 -4 0 -6 -16 -10 -57 -13 -7 -1 -14 -7
-17 -13 -2 -7 -16 -11 -29 -10 -15 2 -28 -3 -31 -10 -3 -8 -14 -12 -26 -10
-13 2 -20 -1 -20 -11 0 -8 -5 -12 -11 -9 -6 4 -17 -1 -25 -11 -9 -11 -12 -12
-8 -4 7 12 5 13 -8 3 -8 -7 -18 -9 -22 -5 -4 4 -6 0 -4 -8 2 -9 -6 -16 -20
-18 -13 -2 -26 -10 -29 -18 -3 -8 -9 -11 -14 -8 -5 3 -9 0 -9 -5 0 -6 -10 -11
-22 -11 -19 0 -20 -2 -8 -10 12 -8 11 -10 -7 -10 -17 0 -23 -6 -24 -22 0 -13
-1 -38 -2 -56 -1 -17 3 -32 8 -32 7 0 7 -3 0 -8 -6 -4 -10 -62 -10 -137 0 -75
4 -133 10 -137 6 -5 6 -8 -2 -8 -6 0 -9 -9 -6 -20 3 -12 8 -19 12 -17 3 2 21
9 39 16 17 7 32 17 32 22 0 5 3 8 8 8 19 -3 33 2 27 11 -3 6 1 7 9 4 9 -3 16
-1 16 5 0 6 7 11 15 11 8 0 15 7 15 15 0 9 6 12 15 9 8 -4 17 1 21 10 3 9 10
13 15 10 5 -3 12 2 15 10 3 9 13 16 20 16 8 0 17 7 20 15 4 8 10 12 15 9 5 -3
9 0 9 5 0 6 5 11 11 11 6 0 17 7 26 15 8 8 19 13 24 10 5 -4 9 -2 9 4 0 10 38
27 53 23 4 -1 7 3 7 9 0 6 7 8 16 5 11 -4 15 -2 11 7 -6 16 34 18 45 2 5 -6 8
-5 8 3 0 7 5 10 10 7 6 -3 10 2 11 12 0 11 3 13 6 5 2 -6 10 -9 16 -5 17 11
67 11 67 0 0 -6 5 -6 13 0 14 12 107 11 126 -2 10 -5 12 -4 7 3 -9 15 -5 15
28 2 17 -6 26 -6 26 0 0 11 22 9 30 -2 3 -4 15 -9 25 -11 11 -1 25 -5 30 -9 6
-3 25 -9 43 -13 17 -3 32 -11 32 -16 0 -6 5 -7 10 -4 6 3 10 1 10 -5 0 -6 4
-9 9 -5 5 3 16 -2 24 -10 9 -8 20 -15 26 -15 6 0 11 -4 11 -10 0 -5 7 -10 16
-10 9 0 12 -5 8 -12 -5 -8 0 -7 11 2 10 8 16 11 13 5 -3 -5 4 -19 15 -30 11
-12 17 -14 13 -5 -5 9 -2 8 7 -2 8 -10 19 -18 26 -18 6 0 11 -4 11 -10 0 -5 7
-10 15 -10 8 0 15 -4 15 -10 0 -5 7 -10 15 -10 8 0 15 -4 15 -10 0 -5 9 -10
21 -10 11 0 17 -4 14 -10 -3 -5 2 -10 12 -10 22 -1 55 -24 46 -33 -3 -4 4 -5
16 -2 11 2 27 -3 35 -11 8 -8 24 -14 35 -14 12 0 21 -4 21 -10 0 -5 11 -10 25
-10 14 0 25 -4 25 -10 0 -5 10 -10 23 -10 13 0 27 -3 31 -7 8 -8 46 -14 94
-14 22 0 30 -4 25 -12 -4 -7 2 -5 12 3 11 9 16 10 11 3 -5 -10 5 -13 41 -13
26 -1 74 -2 106 -4 35 -1 57 2 57 8 0 7 3 8 8 1 7 -11 92 -14 92 -4 0 3 11 5
25 4 14 -2 25 0 25 4 0 12 40 10 40 -2 0 -7 5 -5 10 5 6 10 18 14 30 11 11 -3
26 0 33 6 7 6 27 11 44 13 18 1 29 6 27 10 -5 7 36 13 59 9 5 -1 6 3 2 9 -6
10 7 14 34 11 7 -2 10 2 6 8 -6 11 7 15 33 12 6 -1 12 3 12 9 0 5 5 10 11 10
6 0 17 7 26 16 9 8 23 12 31 9 9 -3 13 -3 9 1 -7 8 52 49 66 46 4 -1 7 5 7 14
0 8 4 12 10 9 6 -3 10 -1 10 5 0 6 5 8 10 5 6 -3 10 -1 10 5 0 6 5 8 10 5 6
-3 10 -1 10 5 0 6 15 17 33 25 17 8 28 14 22 15 -5 0 1 7 13 16 13 9 26 13 29
10 3 -3 11 1 17 10 6 8 21 16 33 17 12 0 19 5 17 9 -5 7 18 12 39 9 4 0 7 4 7
10 0 5 4 8 9 4 5 -3 12 -1 16 5 4 6 11 7 17 4 6 -4 13 -2 17 4 8 13 71 23 71
11 0 -6 7 -6 18 -1 20 10 202 9 219 -1 6 -4 14 -3 18 3 9 14 27 1 19 -13 -4
-7 -4 -9 1 -5 4 4 17 3 28 -3 14 -8 18 -8 13 0 -8 12 21 4 41 -12 7 -5 19 -7
28 -3 8 3 14 0 12 -6 -1 -7 4 -12 11 -13 7 0 17 -7 22 -15 5 -8 10 -11 10 -6
0 5 10 1 22 -10 13 -12 18 -13 13 -4 -8 13 -6 13 8 1 9 -7 14 -18 10 -25 -3
-6 -2 -8 2 -3 5 4 17 -1 28 -10 15 -13 18 -14 12 -3 -8 15 17 -6 53 -42 9 -10
24 -18 34 -18 10 0 18 -4 18 -10 0 -5 7 -10 15 -10 8 0 15 -4 15 -10 0 -5 7
-10 16 -10 8 0 12 -4 9 -10 -3 -6 5 -10 19 -10 14 0 31 -9 39 -20 8 -11 17
-17 20 -13 4 3 16 -2 27 -12 17 -15 23 -16 33 -5 10 10 8 12 -7 6 -16 -6 -17
-4 -6 9 14 17 20 115 7 115 -5 0 -5 5 -1 12 10 16 11 108 1 108 -5 0 -5 5 -1
12 11 17 10 108 0 108 -6 0 -5 5 1 11 14 14 5 49 -14 49 -8 0 -11 4 -8 10 3 6
-1 7 -9 4 -9 -4 -18 1 -22 10 -3 9 -13 16 -20 16 -8 0 -17 6 -20 14 -3 8 -14
12 -27 9 -18 -4 -19 -3 -7 6 13 10 13 11 0 12 -8 1 -18 1 -22 0 -5 0 -8 5 -8
13 0 10 -7 12 -22 8 -13 -3 -19 -1 -15 5 4 6 0 14 -9 17 -10 4 -13 2 -8 -7 4
-6 -8 2 -26 18 -18 17 -30 24 -26 18 4 -7 2 -13 -3 -13 -6 0 -11 5 -11 10 0 6
-8 10 -18 10 -10 0 -22 4 -28 8 -18 16 -66 33 -59 21 4 -6 -7 -3 -25 6 -17 9
-38 14 -46 11 -7 -3 -16 -1 -19 4 -4 6 -19 10 -34 10 -15 0 -32 5 -39 12 -8 8
-12 8 -12 1 0 -10 -77 -10 -88 1 -3 3 -11 1 -19 -5 -8 -8 -13 -8 -13 -1 0 12
-18 11 -39 -2 -9 -6 -12 -5 -7 2 4 7 -1 10 -14 9 -11 -1 -20 -5 -20 -10 0 -5
-6 -4 -14 2 -10 8 -16 9 -21 1 -4 -7 -12 -7 -26 0 -14 8 -19 7 -19 -1 0 -8 -5
-7 -17 2 -9 8 -14 9 -10 3 4 -7 -8 -10 -38 -9 -24 0 -42 -3 -39 -7 6 -9 4 -9
-51 -12 -22 -1 -39 -7 -38 -13 1 -5 -10 -9 -25 -7 -14 1 -33 -3 -41 -9 -7 -6
-19 -12 -25 -13 -6 0 -19 -2 -29 -2 -11 -1 -15 -7 -11 -14 5 -8 2 -9 -9 -5 -9
3 -23 0 -31 -8 -7 -8 -16 -11 -20 -8 -3 4 -6 1 -6 -6 0 -7 -4 -9 -10 -6 -5 3
-10 1 -10 -5 0 -6 -5 -8 -10 -5 -6 3 -13 0 -16 -9 -3 -8 -14 -13 -24 -11 -11
2 -20 -4 -23 -16 -3 -13 -11 -17 -21 -13 -10 4 -16 1 -16 -7 0 -7 -3 -10 -6
-6 -3 3 -17 -6 -30 -20 -13 -14 -24 -22 -24 -18 0 4 -8 -1 -17 -12 -10 -11
-24 -18 -30 -16 -7 3 -13 0 -13 -6 0 -6 -7 -11 -16 -11 -8 0 -13 -4 -10 -9 7
-11 -43 -33 -56 -25 -6 4 -9 3 -6 -2 3 -5 0 -14 -7 -21 -11 -10 -15 -10 -18 0
-4 9 -6 9 -6 0 -1 -7 -8 -13 -17 -13 -9 0 -12 -5 -8 -12 5 -8 0 -7 -11 2 -15
12 -17 12 -10 1 6 -11 3 -13 -13 -9 -14 4 -22 2 -22 -6 0 -8 -13 -12 -36 -11
-19 1 -41 -3 -47 -9 -13 -12 -66 -15 -83 -4 -6 4 -14 4 -18 0 -4 -4 -41 -7
-82 -7 -59 0 -74 3 -75 15 0 10 -2 11 -6 2 -2 -6 -9 -9 -14 -6 -6 3 -25 8 -42
11 -18 3 -34 8 -37 11 -3 4 -14 9 -25 10 -11 2 -23 9 -27 15 -4 7 -8 8 -8 4 0
-4 -10 -2 -22 5 -13 7 -27 13 -33 13 -5 1 -9 7 -7 15 2 8 0 12 -4 7 -4 -4 -18
0 -31 8 -13 9 -28 13 -33 10 -6 -3 -7 1 -4 10 5 12 2 16 -12 13 -11 -2 -18 2
-17 10 2 6 -4 12 -12 12 -8 0 -15 5 -15 10 0 6 -7 10 -15 10 -8 0 -15 5 -15
11 0 5 -4 7 -10 4 -5 -3 -10 -1 -10 5 0 6 -4 8 -10 5 -5 -3 -10 -1 -10 4 0 6
-7 11 -16 11 -8 0 -12 5 -9 10 3 6 -3 10 -14 10 -12 0 -21 5 -21 10 0 6 -9 10
-20 10 -11 0 -20 6 -20 13 0 8 -10 13 -22 13 -15 -1 -22 4 -20 13 2 8 -3 11
-13 8 -8 -4 -15 -2 -15 3 0 5 -7 7 -15 4 -8 -4 -15 -1 -15 7 0 7 -3 9 -7 6 -3
-4 -13 -1 -21 6 -13 10 -14 9 -7 -3 7 -13 5 -13 -11 1 -10 8 -26 15 -34 14 -8
0 -17 3 -20 7 -3 3 -17 8 -30 10 -14 2 -31 7 -39 12 -10 7 -12 5 -6 -5 7 -11
4 -11 -11 1 -10 9 -36 15 -56 15 -21 -1 -38 3 -38 8 0 4 -6 5 -12 1 -17 -11
-82 -11 -89 0 -4 4 -16 3 -28 -3 -11 -7 -21 -8 -21 -3 0 9 -53 8 -69 -3 -6 -3
-11 -1 -11 6 0 9 -3 9 -14 0 -9 -8 -15 -8 -18 -2 -2 6 -9 7 -17 2z"/>
<path d="M615 1551 c6 -11 4 -13 -8 -8 -10 4 -17 2 -17 -5 0 -7 -4 -7 -13 1
-8 6 -16 9 -18 7 -5 -5 -65 -17 -91 -19 -10 -1 -18 -4 -18 -7 0 -3 -12 -6 -27
-7 -15 0 -29 -6 -31 -12 -2 -6 -8 -9 -13 -6 -4 3 -22 -1 -39 -10 -17 -9 -35
-13 -40 -10 -6 3 -10 2 -10 -2 0 -5 -9 -14 -21 -21 -17 -11 -20 -11 -13 0 4 7
-2 4 -14 -6 -12 -11 -22 -16 -22 -11 0 4 -9 -3 -21 -16 -11 -13 -17 -18 -14
-11 4 8 -9 3 -28 -9 -19 -13 -33 -28 -30 -34 4 -5 3 -7 -2 -3 -4 4 -15 2 -23
-5 -13 -10 -15 -9 -8 3 6 12 5 12 -6 -1 -7 -8 -22 -21 -33 -27 -12 -7 -14 -12
-6 -12 11 0 11 -3 1 -15 -10 -12 -10 -15 1 -15 9 0 10 -3 4 -8 -6 -4 -10 -55
-10 -117 0 -62 4 -113 10 -117 7 -5 7 -8 0 -8 -8 0 -11 -73 -6 -132 1 -5 8 -8
17 -8 8 0 13 4 9 9 -3 6 4 8 15 6 11 -2 20 1 20 6 0 10 49 34 63 31 4 -1 7 6
7 15 0 14 2 15 9 4 7 -11 11 -9 20 8 7 11 17 21 24 21 7 0 23 9 35 20 12 12
22 19 22 16 0 -3 12 6 26 19 14 13 35 27 45 30 11 4 19 12 19 18 0 7 4 6 10
-3 8 -13 10 -12 10 3 0 10 5 15 10 12 6 -3 10 -1 10 4 0 6 9 11 21 11 11 0 18
4 14 9 -3 6 4 8 15 6 11 -2 20 -1 20 3 0 4 14 13 30 19 17 6 28 7 25 2 -4 -5
1 -6 9 -3 9 3 16 10 16 14 0 4 12 6 27 4 15 -1 33 2 39 7 8 7 15 6 19 -1 5 -8
13 -6 25 5 14 12 20 13 26 4 5 -8 3 -10 -6 -4 -9 6 -11 4 -6 -4 6 -9 12 -8 26
4 13 12 20 13 25 5 6 -9 10 -9 16 1 7 11 9 9 9 -5 0 -20 0 -20 14 0 12 16 16
17 20 4 5 -11 21 -15 59 -15 28 0 62 -6 74 -13 13 -8 30 -11 39 -8 11 4 15 2
11 -7 -4 -10 2 -13 19 -11 13 1 24 -2 24 -7 0 -4 7 -5 17 -2 11 4 14 3 9 -5
-4 -7 -1 -12 9 -12 8 0 18 -7 21 -15 4 -8 10 -13 14 -10 4 3 19 -4 33 -15 14
-11 28 -20 31 -20 3 0 15 -9 26 -20 12 -12 25 -18 30 -15 6 3 7 -1 4 -10 -4
-11 -2 -14 9 -9 8 3 18 0 22 -5 3 -6 11 -8 17 -5 7 4 8 2 4 -4 -4 -7 -2 -12 4
-12 6 0 8 -4 5 -10 -3 -6 1 -7 9 -4 9 3 16 1 16 -6 0 -6 4 -9 9 -6 5 3 14 -1
21 -9 7 -8 17 -12 23 -8 6 4 8 0 4 -9 -4 -12 -1 -14 15 -10 16 4 19 2 13 -8
-5 -8 -4 -11 2 -7 5 3 24 -3 42 -14 18 -11 30 -15 26 -9 -3 6 0 7 9 4 9 -3 16
-10 16 -14 0 -4 7 -11 16 -14 10 -4 13 -2 8 7 -4 6 1 5 12 -4 10 -9 25 -14 31
-12 7 3 13 0 13 -5 0 -6 13 -9 30 -8 16 1 31 -2 32 -6 2 -5 17 -11 33 -14 17
-2 35 -6 42 -9 6 -2 14 1 17 8 3 8 5 8 5 1 1 -7 14 -10 31 -8 24 3 28 0 23
-13 -5 -12 -3 -14 8 -8 16 10 99 15 99 6 0 -3 11 -6 25 -6 14 0 25 3 25 7 0 8
21 5 37 -5 6 -4 15 -2 19 4 5 8 3 9 -6 4 -9 -5 -11 -4 -6 4 6 8 12 9 20 2 7
-6 16 -8 19 -4 4 3 7 0 7 -8 0 -11 2 -11 10 1 5 9 27 16 52 17 42 3 91 9 96
13 1 2 5 3 10 4 4 1 12 5 19 9 6 4 14 1 16 -5 4 -10 6 -10 6 0 1 7 6 10 11 7
6 -3 10 -1 10 5 0 7 6 10 13 7 6 -2 27 5 45 15 19 10 30 13 26 6 -4 -6 6 -2
23 10 17 12 33 19 37 15 3 -3 6 -1 6 5 0 7 7 12 15 12 8 0 15 5 15 12 0 6 3 8
7 5 3 -4 13 -1 21 6 13 10 14 9 8 -3 -4 -8 1 -4 12 9 12 15 24 21 32 16 8 -5
11 -4 7 2 -6 10 40 38 56 35 4 -1 7 5 7 13 0 8 7 15 15 15 8 0 15 5 15 10 0 6
6 10 14 10 7 0 19 7 26 15 7 9 15 13 18 10 3 -2 15 6 26 18 12 13 27 22 34 19
7 -2 12 2 12 9 0 7 3 9 7 6 3 -4 11 0 17 7 6 8 20 16 31 18 11 2 23 7 26 11 4
5 23 9 43 10 19 0 31 4 25 8 -15 9 17 15 73 15 26 -1 44 3 40 8 -3 5 2 7 11 3
9 -3 19 -2 22 3 4 7 13 6 26 0 11 -6 19 -7 19 -1 0 11 39 3 59 -13 11 -8 13
-8 7 2 -8 13 6 17 17 5 4 -3 30 -8 59 -10 29 -2 55 -8 58 -14 4 -5 11 -9 16
-8 21 4 45 -2 40 -9 -2 -4 5 -9 16 -9 12 -1 25 -7 29 -14 4 -7 14 -9 23 -6 10
4 16 1 16 -8 0 -8 7 -15 16 -15 8 0 13 -4 9 -9 -3 -6 4 -8 15 -6 13 3 26 -4
36 -20 8 -12 24 -25 35 -28 13 -4 18 -10 13 -18 -5 -8 -3 -10 5 -5 7 5 21 0
32 -10 10 -9 19 -13 19 -8 0 5 5 1 11 -9 6 -9 14 -15 20 -12 5 4 9 -1 9 -9 0
-8 6 -13 13 -10 7 2 22 -5 34 -16 12 -11 27 -20 33 -20 6 0 8 -5 4 -11 -4 -7
1 -7 16 1 13 7 20 8 16 2 -3 -6 3 -13 14 -17 11 -4 17 -11 14 -17 -5 -7 -2 -8
5 -4 7 5 10 10 7 13 -3 3 -1 14 5 24 7 14 6 19 -3 19 -9 0 -9 3 -2 8 13 9 13
64 -1 74 -7 5 -6 8 1 8 13 0 13 70 -1 70 -6 0 -6 3 1 8 13 9 13 64 -1 74 -6 5
-6 8 2 8 11 0 10 60 -1 79 -4 5 -2 12 4 16 7 4 4 17 -7 35 -9 16 -21 26 -26
23 -4 -3 -15 3 -23 13 -9 11 -13 13 -9 4 4 -8 -1 -6 -9 4 -9 11 -16 16 -16 11
0 -4 -8 1 -17 11 -10 10 -25 20 -33 22 -8 2 -18 8 -21 14 -3 5 -10 10 -15 11
-5 1 -8 5 -7 9 2 4 -6 5 -17 3 -10 -2 -24 3 -31 11 -6 8 -20 14 -30 14 -11 0
-19 4 -19 9 0 5 -7 12 -16 15 -10 4 -13 2 -8 -6 4 -6 -3 -4 -17 5 -13 9 -34
17 -46 17 -13 0 -23 5 -23 11 0 6 -6 9 -14 6 -7 -3 -19 0 -25 6 -8 8 -11 8
-11 -2 0 -10 -3 -11 -13 -2 -8 6 -17 8 -20 4 -4 -3 -7 -1 -7 5 0 8 -21 12 -61
12 -41 0 -58 3 -53 11 4 7 -1 7 -16 -1 -18 -10 -24 -9 -31 1 -7 12 -11 11 -19
-1 -5 -8 -10 -10 -10 -5 0 15 -70 16 -70 1 0 -6 -4 -5 -9 3 -7 11 -13 12 -23
3 -11 -9 -17 -9 -26 0 -9 9 -12 9 -12 0 0 -7 -5 -12 -11 -12 -5 0 -7 6 -3 13
6 9 5 9 -7 0 -12 -10 -18 -10 -29 0 -10 9 -11 9 -6 0 5 -10 -6 -13 -44 -13
-38 0 -49 -3 -44 -12 6 -10 4 -10 -8 0 -10 8 -17 9 -20 3 -1 -6 -18 -11 -36
-13 -19 -1 -36 -6 -38 -10 -3 -4 -16 -8 -29 -8 -13 0 -27 -5 -30 -10 -4 -6
-11 -8 -16 -5 -5 4 -9 1 -9 -5 0 -6 -4 -9 -9 -5 -5 3 -16 -2 -24 -10 -19 -18
-31 -20 -22 -2 4 6 1 5 -7 -4 -14 -16 -48 -33 -60 -31 -5 1 -8 -3 -8 -9 0 -5
-4 -7 -10 -4 -5 3 -10 -1 -10 -10 0 -9 -4 -14 -9 -11 -5 4 -17 3 -26 0 -13 -6
-14 -9 -3 -16 9 -7 8 -8 -7 -6 -11 2 -28 -5 -38 -15 -10 -10 -22 -15 -27 -12
-6 3 -7 -1 -4 -10 5 -11 -2 -17 -24 -21 -17 -4 -33 -12 -36 -20 -3 -8 -12 -14
-20 -14 -7 0 -17 -7 -20 -16 -3 -8 -11 -12 -17 -9 -6 4 -19 -2 -30 -14 -11
-12 -24 -19 -29 -16 -4 3 -11 -2 -14 -11 -4 -9 -13 -14 -21 -10 -8 3 -15 2
-15 -3 0 -4 -6 -8 -12 -9 -38 -3 -54 -8 -61 -19 -4 -6 -25 -10 -47 -9 -22 2
-40 -1 -40 -6 0 -5 -5 -6 -10 -3 -6 4 -17 2 -25 -5 -10 -8 -15 -8 -20 1 -6 8
-10 7 -16 -2 -7 -11 -9 -11 -9 1 0 12 -2 13 -9 1 -10 -16 -34 -5 -25 12 3 7
-2 3 -10 -7 -10 -13 -16 -15 -16 -7 0 11 -3 11 -15 1 -10 -9 -15 -9 -15 -1 0
6 -5 11 -11 11 -5 0 -7 -6 -3 -12 5 -9 2 -8 -10 1 -9 8 -31 15 -49 17 -18 1
-47 7 -64 12 -18 6 -33 8 -33 6 0 -3 -7 2 -16 11 -9 9 -23 14 -30 11 -8 -3
-14 -1 -14 4 0 6 -6 10 -14 10 -7 0 -19 7 -26 15 -6 8 -15 14 -18 13 -21 -2
-32 4 -32 20 0 14 -2 15 -10 2 -8 -13 -10 -12 -10 3 0 15 -10 21 -26 15 -3 -2
-10 5 -15 15 -6 9 -15 17 -20 17 -6 0 -17 6 -24 13 -37 33 -46 38 -57 31 -7
-4 -8 -3 -4 4 4 7 1 12 -8 12 -9 0 -16 5 -16 10 0 6 -7 10 -15 10 -8 0 -15 5
-15 10 0 6 -8 10 -18 10 -10 0 -27 8 -38 18 -11 10 -24 17 -31 15 -6 -2 -19 4
-29 14 -9 10 -19 17 -21 16 -9 -8 -43 -1 -38 7 4 6 -8 10 -30 10 -20 0 -34 4
-31 8 3 5 -16 9 -42 11 -26 1 -49 6 -52 10 -7 11 -70 20 -70 10 0 -10 -44 2
-52 15 -6 8 -8 8 -8 0 0 -6 -7 -11 -15 -11 -8 0 -12 3 -10 7 2 4 -16 7 -40 7
-29 1 -43 -3 -38 -10 4 -6 1 -7 -8 -2 -21 13 -53 14 -61 1 -5 -7 -8 -7 -8 3 0
11 -3 11 -15 1 -12 -10 -18 -10 -32 1 -14 12 -16 12 -8 0z"/>
</g>
</svg>
