<svg width="506" height="188" viewBox="0 0 506 188" fill="none" xmlns="http://www.w3.org/2000/svg">
<path d="M519 -127H-312V315H519V-127Z" fill="#F4F4F4"/>
<path d="M519 231.536C470.525 209.509 422.05 187.483 362.495 174.518C302.94 161.552 232.305 157.574 201.189 126.561C170.165 95.4733 178.659 37.3503 163.24 -9.42799C147.912 -56.2063 108.763 -91.64 69.6138 -127H519V231.536Z" fill="#ECECEC"/>
<path d="M519 141.957C482.621 125.382 446.241 108.881 401.644 99.1567C356.955 89.359 303.956 86.4123 280.688 63.1337C257.327 39.855 263.698 -3.75567 252.249 -38.821C240.707 -73.8863 211.345 -100.48 181.891 -127H519V141.957Z" fill="#DDDDDD"/>
<path d="M519 52.3047C494.716 41.2547 470.525 30.2783 440.701 23.722C410.97 17.2393 375.606 15.324 360.094 -0.219673C344.582 -15.7633 348.83 -44.8617 341.166 -68.214C333.502 -91.64 313.835 -109.32 294.261 -127H519V52.3047Z" fill="#CECECE"/>
<path d="M-312 -43.5356C-252.445 -39.3366 -192.982 -35.1376 -139.983 -16.279C-87.076 2.57969 -40.7247 35.9507 -8.40802 72.784C23.9087 109.544 42.1907 149.766 64.166 190.651C86.1413 231.609 111.81 273.305 137.386 315H-312V-43.5356Z" fill="#ECECEC"/>
<path d="M-312 46.043C-267.311 49.2106 -222.714 52.452 -183.01 66.5223C-143.307 80.6663 -108.59 105.713 -84.306 133.338C-60.0223 160.963 -46.357 191.093 -29.8293 221.738C-13.394 252.457 5.81137 283.692 25.109 315H-312V46.043Z" fill="#DDDDDD"/>
</svg>
