<svg version="1.2" baseProfile="tiny-ps" xmlns="http://www.w3.org/2000/svg" viewBox="0 0 830 866" width="830" height="866">
	<title>404_desktop-svg</title>
	<style>
		tspan { white-space:pre }
		.shp0 { fill: #ec8c92 } 
		.shp1 { fill: #ffffff } 
		.shp2 { fill: #000000 } 
		.shp3 { fill: #274d76 } 
		.shp4 { fill: #fff3a1 } 
		.shp5 { fill: #f2bdba } 
		.shp6 { fill: #93b4f6 } 
		.shp7 { fill: #74baab } 
	</style>
	<g id="BG">
		<g id="Layer">
			<g id="Layer">
				<path id="Layer" class="shp0" d="M410.91 789.86C202.15 789.86 33.41 621.12 33.41 412.36C33.41 203.6 202.15 34.86 410.91 34.86C619.67 34.86 788.41 203.6 788.41 412.36C788.41 621.12 619.67 789.86 410.91 789.86Z" />
			</g>
		</g>
		<path id="Layer" class="shp1" d="M82.55 332.08L80.58 331.74C80.68 331.16 91.06 273.29 131.19 228.91L132.67 230.25C92.93 274.2 82.65 331.51 82.55 332.08Z" />
		<path id="Layer" class="shp1" d="M137.25 192.23L135.6 191.11C135.92 190.64 168.04 144.05 219.57 121.32L220.38 123.15C169.39 145.64 137.57 191.77 137.25 192.23Z" />
		<path id="Layer" class="shp1" d="M766.37 405.51L764.37 405.51C764.37 333.74 731.8 268.69 731.47 268.04L733.25 267.14C733.58 267.79 766.37 333.25 766.37 405.51Z" />
		<path id="Layer" class="shp1" d="M727.43 368.09C725.89 339.5 716.58 315.44 716.49 315.2L718.35 314.47C718.44 314.71 727.86 339.06 729.43 367.98L727.43 368.09Z" />
		<g id="Layer">
			<path id="Layer" class="shp2" d="M19.81 318.48L17.85 318.06C17.97 317.48 30.6 259.91 74.86 201.73L76.45 202.94C32.46 260.77 19.93 317.91 19.81 318.48Z" />
			<path id="Layer" class="shp2" d="M82.33 157.59L80.8 156.31C80.92 156.17 92.65 142.19 107.61 128.07L108.98 129.52C94.1 143.56 82.44 157.45 82.33 157.59Z" />
			<path id="Layer" class="shp2" d="M131.79 129.45L130.27 128.15C130.44 127.95 147.58 108.15 180.29 85.83C210.46 65.24 260.44 38.22 327.25 26.37L327.6 28.34C261.14 40.13 211.42 67.01 181.42 87.48C148.92 109.65 131.95 129.25 131.79 129.45Z" />
			<path id="Layer" class="shp2" d="M787.45 283.7C770.62 215.1 717.22 155.88 716.68 155.29L718.16 153.94C718.7 154.53 772.44 214.14 789.39 283.22L787.45 283.7Z" />
			<path id="Layer" class="shp2" d="M802.28 383.57C800.29 358.62 795.53 336.78 791.89 322.85L793.83 322.34C797.49 336.35 802.28 358.31 804.28 383.41L802.28 383.57Z" />
			<path id="Layer" class="shp2" d="M813.13 477.87L811.18 477.42C812.9 469.98 814.4 461.91 815.64 453.44L817.62 453.73C816.37 462.25 814.85 470.37 813.13 477.87Z" />
			<path id="Layer" class="shp2" d="M821.32 416.3L819.32 416.19C820.89 387.39 819.5 359.62 815.85 347.09L817.77 346.53C821.48 359.26 822.9 387.3 821.32 416.3Z" />
			<path id="Layer" class="shp2" d="M789.85 507.41L787.95 506.8C791.46 495.88 794.44 480.68 796.81 461.65L798.79 461.9C796.41 481.05 793.4 496.36 789.85 507.41Z" />
			<path id="Layer" class="shp2" d="M800.59 445.19L798.6 445.01C799.33 437.09 799.65 431.83 799.65 431.77L801.65 431.89C801.64 431.94 801.32 437.25 800.59 445.19Z" />
			<path id="Layer" class="shp2" d="M598.09 68.33C545.68 34.97 457.9 23.51 457.02 23.4L457.27 21.42C457.49 21.45 479.72 24.31 508.17 31.28C534.45 37.72 571.56 49.08 599.17 66.65L598.09 68.33Z" />
			<path id="Layer" class="shp2" d="M554.37 32.42C540.31 26.22 507.64 18.85 507.31 18.78L507.75 16.83C508.08 16.9 540.94 24.31 555.18 30.6L554.37 32.42Z" />
			<path id="Layer" class="shp2" d="M128.91 700.94C124.67 697.59 120.48 694.08 116.46 690.52L117.79 689.02C121.79 692.56 125.95 696.05 130.16 699.37L128.91 700.94Z" />
			<path id="Layer" class="shp2" d="M95.12 669.54C37.81 607.04 26.83 538.84 26.72 538.16L28.7 537.86C28.8 538.54 39.71 606.16 96.59 668.19L95.12 669.54Z" />
			<path id="Layer" class="shp2" d="M110.83 664.37C90.31 647.45 71.13 608.84 70.94 608.45L72.73 607.57C72.92 607.95 91.92 646.18 112.1 662.83L110.83 664.37Z" />
			<path id="Layer" class="shp2" d="M309.59 792.77C280.42 787.19 251.6 777.27 223.93 763.28L224.83 761.49C252.34 775.39 280.98 785.25 309.97 790.8L309.59 792.77Z" />
			<path id="Layer" class="shp2" d="M188.59 742.67C174.25 733.07 166.22 725.95 166.14 725.88L167.47 724.39C167.55 724.46 175.49 731.5 189.7 741.01L188.59 742.67Z" />
			<path id="Layer" class="shp2" d="M429.02 813.78L428.92 811.78C436.32 811.42 443.56 810.86 450.43 810.12L450.65 812.11C443.74 812.86 436.46 813.42 429.02 813.78Z" />
			<path id="Layer" class="shp2" d="M402.73 814.24C356.95 813.74 318.59 806.88 318.2 806.81L318.56 804.84C318.94 804.91 357.15 811.75 402.75 812.24L402.73 814.24Z" />
		</g>
		<path id="Layer" class="shp1" d="M183.93 683.04C120.85 638.81 97.61 568.65 97.38 567.95L99.28 567.33C99.51 568.03 122.56 637.57 185.08 681.4L183.93 683.04Z" />
		<path id="Layer" class="shp1" d="M321.85 759.57C272.34 750.87 222.77 717.73 222.28 717.39L223.4 715.73C223.89 716.06 273.12 748.97 322.2 757.59L321.85 759.57Z" />
		<path id="Layer" class="shp1" d="M240.4 699.46C227.22 695.33 211.31 680.58 210.64 679.96L212 678.5C212.16 678.65 228.25 693.56 240.99 697.56L240.4 699.46Z" />
	</g>
	<g id="Astro">
		<g id="Layer">
			<path id="Layer" class="shp1" d="M477.28 88.98C467.23 95.1 423.52 120.68 391.97 144.74C386.95 148.57 383.21 153.82 381.24 159.82C377.15 172.31 373.48 186.18 372.44 190.2C372.2 191.13 372.32 192.12 372.8 192.95C375.75 198.15 391.92 216.05 480.02 247.21L500.7 202.48C500.7 202.48 487.64 119.25 483.63 91.45C483.22 88.66 480.01 87.32 477.28 88.98Z" />
		</g>
		<g id="Layer">
			<path id="Layer" class="shp3" d="M676.26 589.22L567.81 601.96C550.22 604.03 534.84 614.8 526.89 630.63L478.35 728.16C476.28 732.28 471.68 734.47 467.18 733.48L449.93 729.68C437.83 727.01 425.74 734.19 422.29 746.09L419.59 755.42C418.09 760.59 420.45 766.09 425.23 768.57L504.86 809.84C510.14 812.57 516.63 810.74 519.7 805.65L599.73 675.32L710.34 668.35L676.26 589.22Z" />
		</g>
		<g id="Layer">
			<path id="Layer" class="shp3" d="M614.88 505.94L622.79 486.1L688.22 489.61L664.45 579.44L614.88 505.94Z" />
		</g>
		<g id="Layer">
			<path id="Layer" class="shp3" d="M606.62 457.99C606.62 457.99 613.81 439.38 613.7 429.27C613.56 415.82 615.02 388.45 606.45 389.74C601.23 390.52 599.67 403.18 599.03 408.62C598.78 410.77 597.95 412.83 596.51 414.45C594.46 416.76 591.55 417.65 590.02 407.18C587.53 390.12 588.07 357.29 578.16 363.3C573.14 366.35 575.83 396.16 572.99 394.84C570.15 393.52 570.5 348.5 558.42 353.41C554.43 355.03 555.33 376.54 556.15 388.57C556.2 389.24 555.22 389.38 555.07 388.72C553.44 381.45 550.94 370.86 548.94 364.65C546.79 357.96 541.79 361.46 541.79 366.34C541.79 376.84 543.57 398.95 543.57 398.95L606.62 457.99Z" />
		</g>
		<g id="Layer">
			<path id="Layer" class="shp4" d="M774.57 517.72L792.57 548.72L750.57 683.72C746.63 697.41 730.97 705.95 716.91 703.61L662.85 697.61C655.91 696.45 653.42 700.01 655.85 706.61L679.18 813.66C683.14 824.43 677 836.27 665.91 839.24L585.47 860.74C577.68 862.82 569.9 857.38 569.19 849.35L564.56 821.72C564.37 819.61 563.77 811.14 568.56 807.72C575.56 802.72 586.56 795.72 586.56 795.72C590.27 793.73 590.65 787.78 589.56 783.72L559 664.88C554.01 646.29 565.58 631.88 584.57 628.72C608.57 624.72 648.57 615.72 648.57 615.72L665.7 503.97C667.95 495.1 676.14 489.03 685.29 489.47L711.57 490.72L774.57 517.72Z" />
		</g>
		<g id="Layer">
			<g id="Layer">
				<path id="Layer" class="shp4" d="M764.24 488.34C758.77 511.51 735.62 525.82 712.46 520.34C689.29 514.87 674.98 491.72 680.45 468.56C685.92 445.39 709.07 431.08 732.24 436.55C755.41 442.02 769.72 465.17 764.24 488.34Z" />
			</g>
		</g>
		<g id="Layer">
			<path id="Layer" class="shp1" d="M331.4 477.86L474.46 348.44C481.85 341.75 492.66 342.28 501.41 347.05C519.1 356.7 549.44 373.95 576.5 403.27C599.22 427.89 636.97 466.98 641.43 500.07C641.94 503.86 640.62 507.66 637.97 510.41C594.35 555.6 505.62 638.83 495.7 647.29C472.22 667.32 411.33 622.1 376.64 581.78C362.15 564.95 313.27 494.96 331.4 477.86Z" />
		</g>
		<g id="Layer">
			<g id="Layer">
				<path id="Layer" class="shp4" d="M797.47 525.64C784.19 512.57 761.49 513.35 747.49 525.35L697.86 570.55C695.14 572.81 691.11 572.46 688.82 569.77L653.66 528.67C648 522.04 644.58 513.8 643.88 505.12L642.61 489.45C642.52 488.39 642.27 487.35 641.85 486.37L635.44 469.87C634.56 467.6 631.5 467.32 630.17 469.36C628.37 472.13 627.39 476.3 627.39 480.44C627.39 488.44 629.27 497.08 626.27 497.08C622.27 497.08 617.52 489.22 615.49 481.84C613.16 473.35 612 466.58 607.89 462.82C606.03 461.12 602.72 462.24 602.21 465.07C601.02 471.59 602.39 483.87 602.5 490.84C602.53 492.84 600.74 492.8 600.19 490.37C598.5 482.84 593.89 459.83 593.89 459.83C593.16 456.8 588.98 456.45 587.77 459.33C584.31 467.6 585.6 485.59 586.23 492.28C586.29 492.87 585.49 493.11 585.22 492.59C583.55 489.47 580.6 483.33 578.49 475.51C578.02 473.77 575.64 473.39 574.76 474.96C572.11 479.73 573.46 491.12 574.17 495.8C574.24 496.24 573.64 496.44 573.42 496.06C572.27 494.04 571.39 492.13 570.5 489.85C569.35 486.9 566.88 488.59 566.67 490.46C565.97 496.77 565.61 505.79 568.29 517.35C569.26 521.52 572.77 534.03 588.5 552.84L672.5 645.84C687.5 664.84 706.72 659.83 717.5 651.84C744.5 631.84 794.34 582.57 794.34 582.57C813.3 566.57 809.33 537.31 797.47 525.64Z" />
			</g>
		</g>
		<g id="Layer">
			<path id="Layer" class="shp5" d="M421.83 555.03C371.63 501.37 345.46 485.9 332.68 484.47C329.85 484.15 327.4 486.36 327.42 489.21C327.57 515.35 364.39 567.56 376.63 581.8C404.57 614.29 449.54 649.96 478.24 652.11C480.44 652.27 482.22 650.36 481.97 648.18C480.23 632.84 468.11 604.5 421.83 555.03Z" />
		</g>
		<g id="Layer">
			<path id="Layer" class="shp5" d="M373.23 193.68C377.2 203.24 422.82 232.65 480 247.22L481.7 243.55C459.51 224.1 421.15 204.58 392.67 197.23C382.23 194.54 376.54 193.29 373.23 193.68Z" />
		</g>
		<path id="Layer" class="shp2" d="M482.73 108.25C477.49 103.88 471.26 100.98 464.23 99.63L464.61 97.67C471.98 99.09 478.5 102.13 484.01 106.71L482.73 108.25Z" />
		<g id="Layer">
			<g id="Layer">
				<g id="Layer">
					<path id="Layer" class="shp6" d="M559.19 439.95L538.02 422.22C534.7 419.44 530.39 418.15 526.09 418.67C508.94 420.73 464.1 426.76 449.07 435.02C443.5 438.08 431.44 451.44 431.44 451.44C427.07 455.97 427.05 463.14 431.4 467.7L458.92 498.11C460.83 500.22 464.05 500.46 466.25 498.66L488.25 480.64C490.63 478.69 490.87 475.13 488.77 472.87L484.34 468.13C482.57 466.47 483.39 463.5 485.77 462.99L557.31 447.63C560.87 446.84 562 442.3 559.19 439.95ZM526.22 470.96C522.78 468.52 518.5 468.31 515.26 470.99L448.8 525.88C444.8 529.18 444.55 537.21 447.94 541.14C450.57 544.19 455.87 550.27 458.44 553.39C463.19 559.16 470.99 559.34 474.82 555.85L492.76 539.5C494.39 538.02 496.91 538.12 498.41 539.73L502.21 543.81C504.9 546.63 509.34 546.77 512.2 544.13L532.01 525.83C535.76 522.36 535.79 516.44 532.06 512.94L530.23 511.22C528.52 509.62 528.54 506.89 530.27 505.32L539.39 497.01C542.79 493.91 544 486.96 539.71 482.91C539.72 482.91 530.67 474.13 526.22 470.96Z" />
				</g>
			</g>
		</g>
		<g id="Layer">
			<path id="Layer" class="shp2" d="M381.34 199.03C393.95 208.96 426.91 227.02 467.62 240.23L468.96 237.42C452.14 223.13 413.83 205.38 382.16 197.36C381.17 197.11 380.53 198.4 381.34 199.03Z" />
		</g>
		<g id="Layer">
			<path id="Layer" class="shp2" d="M335.98 494.86C341.7 487.62 392.24 534.77 409.37 552.24C438.69 582.13 481.27 639.98 471.01 642.68C464.62 644.36 425.09 622.22 383.36 575.05C351.61 539.15 332.45 499.33 335.98 494.86Z" />
		</g>
		<g id="Layer">
			<path id="Layer" class="shp3" d="M673.65 77.66L672.17 68.68C670.94 61.21 663.55 57.55 656.41 60.09C647.05 63.41 634.91 67.35 628.33 72.47C625.72 74.5 624.3 77.7 624.57 80.99C626.98 110.22 629.74 133 631.05 143.06C631.51 146.63 630.33 150.22 627.83 152.81L598.63 183.18L628.24 198.32L683.67 146.67L673.65 77.66Z" />
		</g>
		<g id="Layer">
			<path id="Layer" class="shp4" d="M480.01 247.22L501.19 201.41C504.86 193.48 512.6 188.23 521.32 187.74L565.21 185.31C576.01 184.71 586.52 181.59 595.9 176.2L595.9 176.2C603.58 171.79 613.03 171.83 620.67 176.32L620.67 176.32C625.69 179.27 632.03 178.72 636.47 174.95L652.32 161.49C654.14 159.94 655.12 157.63 654.97 155.25C654.13 142.51 651.46 100.79 651.12 80.45C651.07 77.62 652.66 75.01 655.2 73.77C665.75 68.62 682.27 66.11 694.93 68.27C698.06 68.8 700.51 71.37 700.71 74.54C701.56 88.42 692.08 103.29 692.08 103.29L700.43 166.06C702.27 179.9 696.36 193.63 685.05 201.81L632.32 239.93C628.32 242.82 624.16 245.5 619.86 247.93L619.86 247.93C609.65 253.72 598.73 258.16 587.38 261.13L546.97 271.7L480.01 247.22Z" />
		</g>
		<g id="Layer">
			<path id="Layer" class="shp3" d="M498.18 206.06L522.73 202.34L541.81 222.61L504.83 257.8L485.27 235.7L498.18 206.06Z" />
		</g>
		<g id="Layer">
			<g id="Layer">
				<path id="Layer" class="shp4" d="M558.24 194.59C553.43 212.99 534.66 223.98 516.26 219.17C497.85 214.36 486.86 195.59 491.67 177.19C496.49 158.78 515.25 147.79 533.66 152.6C552.06 157.41 563.05 176.18 558.24 194.59Z" />
			</g>
		</g>
		<g id="Layer">
			<g id="Layer">
				<g id="Layer">
					<path id="Layer" class="shp6" d="M436.88 173.27L443.39 163.22C444.49 161.52 443.82 159.24 441.97 158.41L439.25 157.19C437.61 156.45 437.4 154.21 438.88 153.18L467.95 133.03C469.42 132.01 469.09 129.75 467.39 129.18L454.08 124.79C452.5 124.27 450.78 124.5 449.39 125.42L420.77 144.37C419.01 145.53 417.59 147.13 416.63 149L412.61 156.84C410.58 160.8 412.32 165.65 416.4 167.41L432.79 174.5C434.28 175.15 436.01 174.62 436.88 173.27ZM471.25 168.83L469.77 167.91C468.45 167.09 467.95 165.42 468.59 164.01L470.55 159.71C471.7 157.19 470.72 154.21 468.3 152.86L461.73 149.2C459.15 147.77 455.9 148.7 454.49 151.29L434.64 187.47C433.32 189.88 434.05 192.9 436.33 194.44L443.36 199.17C445.95 200.91 449.48 200.05 450.99 197.32L456.68 186.95C457.53 185.41 459.49 184.89 460.99 185.8L461.77 186.28C463.48 187.33 465.72 186.69 466.62 184.9L472.49 173.3C473.31 171.71 472.76 169.77 471.25 168.83Z" />
				</g>
			</g>
		</g>
		<g id="Layer">
			<g id="Layer">
				<path id="Layer" class="shp4" d="M583.76 203.13L583.76 203.13C574.14 194.54 559.47 195.05 550.46 204.27L523.68 231.69C521.59 233.83 518.51 234.68 515.62 233.92L475.81 223.47C473.06 222.75 470.57 221.27 468.62 219.2L457.19 207.08C456.24 206.07 454.53 206.25 453.92 207.49C453.29 208.76 452.9 210.84 453.55 214.21C454.99 221.71 450.64 221.69 446.22 218.15C443.94 216.33 440.41 213.49 437.53 211.16C435.34 209.39 432.11 210.97 432.1 213.78C432.08 217.2 432.57 221.12 434.54 223.31C430.52 235.37 437.27 249.69 447.96 255.47C460.3 262.14 526.81 282.69 526.81 282.69C533.27 284.6 540.26 282.81 545.01 278.04L584.78 238.1C594.54 228.32 594.07 212.34 583.76 203.13Z" />
			</g>
		</g>
		<g id="Layer">
			<g id="Layer">
				<path id="Layer" class="shp2" d="M504.16 163.09C499.9 166.18 496.58 170.63 494.61 175.93C490.17 187.88 494.36 200.72 503.72 208.39C508.76 212.52 516.45 213.5 524.09 208.78C529.06 205.71 532.82 200.77 535 194.91C538.82 184.64 536.24 173.99 529.42 166.36C523.82 160.11 511.26 157.93 504.16 163.09Z" />
			</g>
		</g>
		<g id="Layer">
			<path id="Layer" class="shp1" d="M255.13 550.44C251.31 535.88 247.06 517.12 244.82 510.75C244.73 510.5 244.42 509.81 244.19 509.66C242.18 508.32 230.38 502.67 216.72 504.95C212.49 505.66 197.97 504.31 192.16 508.72C190.36 510.08 189.68 512.38 189.52 514.63C188.7 526.76 186.68 564.24 187.02 576.89C187.08 579.16 188.64 581.2 190.87 581.65C215.48 586.66 244.1 584.35 256.85 574.72C258.26 573.65 259.05 571.96 258.89 570.19C258.57 566.8 257.69 560.19 255.13 550.44Z" />
		</g>
		<g id="Layer">
			<path id="Layer" class="shp3" d="M114.51 453.31L73.85 440.6C71.74 439.94 70.42 437.84 70.73 435.65L77.01 391.72C77.45 388.62 75.3 385.75 72.2 385.3L46.8 381.42C45.61 381.25 43.05 382.14 43.05 385.56C43.05 387.23 43.51 388.16 44.36 389.18L48.95 394.71C49.81 395.74 50.18 397.1 49.96 398.42L44.53 432.02L63.12 471.61L108.29 476.44L114.51 453.31Z" />
		</g>
		<g id="Layer">
			<path id="Layer" class="shp4" d="M34.18 396.63L69.52 452.22C70.47 453.72 71.99 454.78 73.72 455.17L81.64 456.93C84.27 457.51 87.02 457.05 89.31 455.65L92.37 453.78C98.44 450.06 105.83 449.19 112.6 451.4L161.08 467.21L146.91 511.4L99.11 499.74C94.96 498.73 90.88 497.49 86.87 496.02C80.91 493.84 72.19 490.51 66.88 487.9C53.19 481.17 48.7 475.93 46.47 471.75C39.38 458.46 21.86 428.34 19.65 424.78C16.78 420.16 10.47 419.76 7.12 418.89C5.05 418.35 3.53 417.44 2.69 415.47L2.26 414.47C1.75 413.28 2.15 411.9 3.21 411.16L26.43 394.94C29.01 393.14 32.58 393.91 34.18 396.63Z" />
		</g>
		<g id="Layer">
			<path id="Layer" class="shp3" d="M182.7 497.46L225.48 497.43C228.97 497.41 232.57 498.45 234.41 500.56C235.51 501.82 237.47 504.54 238.51 505.85C239.23 506.77 238.97 507.96 237.93 507.71L232.74 505.85L233.66 509.03C234.29 510.75 232.72 511.53 231.39 510.86L226.22 508.42L226.22 508.42C226.35 509.86 224.83 510.88 223.54 510.21C221.16 508.97 220.25 508.17 216.96 505.93C216.14 505.38 215.17 505.1 214.18 505.15C205.36 505.59 199.14 506.69 193.76 508.89C189.77 510.52 189.67 514.67 189.6 515.97C189.48 518.16 186.52 524.72 186.52 524.72L158.67 518.99L153.74 500.45L182.7 497.46Z" />
		</g>
		<g id="Layer">
			<g id="Layer">
				<path id="Layer" class="shp4" d="M166.44 502.4C154.3 502.4 144.48 492.17 144.48 479.52C144.48 466.87 154.3 456.64 166.44 456.64C178.58 456.64 188.4 466.87 188.4 479.52C188.4 492.17 178.58 502.4 166.44 502.4Z" />
			</g>
		</g>
		<g id="Layer">
			<path id="Layer" class="shp1" d="M175.99 533.54C175.99 533.54 162.48 557.4 160.45 571.5C159.8 576.04 163.11 580.21 167.67 580.75C171.71 581.22 177.96 581.45 187.37 580.7C186.01 576.45 189.11 538.67 190.44 523.4C190.62 521.35 188.09 520.25 186.7 521.77L175.99 533.54Z" />
		</g>
		<g id="Layer">
			<path id="Layer" class="shp1" d="M222.11 522.17C225 528.19 235.91 551.16 238.24 560.38C238.53 561.52 237.63 562.6 236.46 562.53C225.79 561.82 215.49 563.38 211.1 564.18C209.98 564.38 208.98 563.47 209.07 562.34L212.05 525.55C212.1 524.9 212.52 524.33 213.12 524.09L219.89 521.33C220.74 520.98 221.71 521.35 222.11 522.17Z" />
		</g>
		<path id="Layer" class="shp6" d="M235.73 552.95C230.79 540.03 221.4 520.71 221.4 520.71L219.19 521.61L229.67 562.35C232.58 562.32 235.62 562.5 238.66 562.79C238.52 560.85 237.37 557.26 235.73 552.95Z" />
		<g id="Layer">
			<path id="Layer" class="shp3" d="M238.67 562.79C238.66 562.62 230.6 556.08 230.6 556.08C229.22 555.03 227.36 554.89 225.85 555.72L210.1 564.35C213.9 563.62 226.28 561.59 238.67 562.79Z" />
		</g>
		<g id="Layer">
			<path id="Layer" class="shp2" d="M158.99 486.24C158.62 490.23 159.51 493.98 161.28 497.13C162.47 499.24 164.71 500.6 167.14 500.6C167.15 500.6 167.17 500.6 167.18 500.6C178.12 500.6 186.99 491.36 186.99 479.96C186.99 479.94 186.99 479.91 186.99 479.89C186.97 475.08 183.53 470.99 178.98 470.23C177.59 470 176.14 469.94 174.65 470.07C166.43 470.82 159.78 477.69 158.99 486.24Z" />
		</g>
		<g id="Layer">
			<path id="Layer" class="shp4" d="M229.84 525.09L225.12 525.64C224.74 525.68 224.55 525.2 224.85 524.97L228.81 521.98C230.36 520.81 229.43 518.35 227.5 518.5C223.21 518.83 217.68 519.29 213.73 519.71C213.08 519.78 212.79 518.9 213.36 518.57C215.13 517.56 216.06 517.07 217.9 516.04C220.53 514.56 217.94 512.48 214.93 512.59C209.3 512.81 203.69 516.2 199.42 516.2C191.7 516.2 170.33 515.16 170.33 515.16C168.64 515.1 167.07 514.24 166.12 512.84L148.76 487.15C143.9 480.73 134.73 479.54 128.4 484.51C122.39 489.22 121.1 497.81 125.47 504.08L150.89 536.65C153.24 539.66 156.81 541.48 160.63 541.61L215.98 540.77C222.58 540.78 227.22 534.8 227.81 531.69C229.51 530.54 230.72 529.28 231.59 528.14C232.6 526.8 231.52 524.89 229.84 525.09Z" />
		</g>
		<g id="Layer">
			<path id="Layer" class="shp1" d="M161.73 288.45C161.73 288.45 166.43 306.11 178.28 330.05C195.08 363.98 203.28 377.57 211.92 392.14C222.44 409.88 254.56 427.87 316.53 389.48C380.74 349.71 370.95 323.51 366.69 314.39C364.17 308.99 343.72 270.77 326.75 241.76C320.13 230.44 313.88 220.77 309.72 214.53C306.26 209.34 300.7 205.97 294.5 205.27C277.6 203.36 241.8 203.55 204.99 230.22C154.24 267 161.73 288.45 161.73 288.45Z" />
		</g>
		<g id="Layer">
			<path id="Layer" class="shp5" d="M369.27 333.81C370.96 325.28 367.28 316.56 360.11 311.62C341.93 299.08 306.32 298.54 261.17 327.06C211.56 358.4 210.41 384.92 217.79 399.61C232.25 413.88 263.43 422.37 316.52 389.48C354.57 365.92 366.63 347.12 369.27 333.81Z" />
		</g>
		<g id="Layer">
			<path id="Layer" class="shp2" d="M227.08 398.64C220.91 389.81 220.79 362.15 267.1 332.36C313.78 302.33 354.73 310.87 360.75 327.06C366.77 343.25 333.23 372.9 295.87 391.88C262.07 409.06 233.92 408.43 227.08 398.64Z" />
		</g>
		<g id="Layer">
			<path id="Layer" class="shp2" d="M186.98 574.28C182.91 574.27 178.62 574.49 174.33 574.83C164.67 575.6 163.37 578.64 164.28 579.57C165.13 580.44 166.42 580.91 167.67 581.05C171.71 581.52 180.05 581.79 188.93 580.75C186.98 578.6 186.99 577.56 186.98 574.28Z" />
		</g>
		<g id="Layer">
			<path id="Layer" class="shp1" d="M254.91 514.74C252.02 511.17 250.37 511.61 245.09 511.53C247.33 519.27 251.23 535.58 255.13 550.45C259.03 565.31 259.05 572.87 259.05 572.87C263.95 572.22 267.9 571.49 277.49 569.88C285.32 568.56 286.02 562.08 281.97 556.08L254.91 514.74Z" />
		</g>
		<g id="Layer">
			<path id="Layer" class="shp5" d="M255.22 575.87C255.78 574.45 254.86 573.03 252.51 571.87C247.84 569.55 238.7 567.73 220.89 568.73C204.47 569.65 196.14 573.71 191.95 577.29C189.71 579.21 189.86 580.69 191.84 581.89C216.52 587.88 242.05 584.54 255.22 575.87Z" />
		</g>
		<g id="Layer">
			<path id="Layer" class="shp2" d="M278.51 570.06C280.49 569.55 280.8 567.43 279.77 566.69C279.33 566.38 278.81 566.06 278.19 565.74C273.32 563.24 265.54 563.27 258.1 564.16C259.04 569.94 259.21 571.33 258.15 573.29C264.21 572.87 277.92 570.21 278.51 570.06Z" />
		</g>
		<g id="Layer">
			<g id="Layer">
				<g id="Layer">
					<path id="Layer" class="shp6" d="M220.87 282.6C217.96 275.28 217.87 267.12 221.3 261.77C222.1 260.52 223.57 258.48 222.83 257.2L216.39 247.86C215.03 245.5 211.48 246.98 209.85 249.17C201.82 260 198.82 274.11 204.82 289.17C213.63 311.32 229.99 317.8 246.85 313.68C249.58 313.01 250.91 309.92 249.5 307.49L244.58 299.34C243.5 297.47 241.43 296.44 239.27 296.61C231.99 297.2 224.79 292.44 220.87 282.6ZM268.9 256.47C256.15 236.28 235.89 233.2 222.62 238.24C220.3 239.12 219.25 241.81 220.49 243.96L227.73 253.77C228.59 255.25 230.29 255.97 231.96 255.65C239.04 254.28 247.74 257.02 253.47 265.68C258.02 272.56 258.01 283.33 250.79 290.25C249.21 291.77 249.37 294.38 250.47 296.28L255.09 304.25C256.92 307.4 261.01 307.7 263.8 305.37C276.88 294.45 277.84 270.63 268.9 256.47Z" />
				</g>
			</g>
		</g>
		<path id="Layer" fill-rule="evenodd" class="shp2" d="M554.53 255.06C553.84 255.06 553.14 254.88 552.5 254.51C547.6 251.66 538.76 246.09 534.61 240.92C533.44 239.46 533.47 237.33 534.7 235.85L547.69 220.19C549.06 218.53 551.49 218.24 553.22 219.52C557.3 222.55 564.73 228.15 568.68 231.65C570.27 233.06 570.52 235.4 569.26 237.1C564.72 243.24 560.19 249.88 557.9 253.28C557.11 254.43 555.83 255.06 554.53 255.06ZM550.8 220.72C550.21 220.72 549.62 220.97 549.22 221.46L536.23 237.12C535.61 237.87 535.58 238.93 536.17 239.66C540.27 244.77 549.66 250.54 553.51 252.78C554.44 253.32 555.63 253.05 556.23 252.16C558.54 248.74 563.08 242.08 567.64 235.9C568.27 235.04 568.15 233.85 567.34 233.14C563.45 229.69 556.07 224.13 552.01 221.12C551.65 220.85 551.22 220.72 550.8 220.72Z" />
		<path id="Layer" fill-rule="evenodd" class="shp2" d="M743.54 611.06C743.29 611.06 743.04 611.05 742.78 611.02C740.7 610.82 738.83 609.81 737.52 608.19L715.97 581.44C713.41 578.26 713.78 573.63 716.8 570.89L740.62 549.36C742.19 547.94 744.21 547.24 746.31 547.39C748.42 547.54 750.32 548.51 751.68 550.12L774.48 577.29C777.21 580.54 776.78 585.4 773.54 588.13L748.48 609.23C747.08 610.43 745.35 611.06 743.54 611.06ZM718.15 572.38C715.91 574.41 715.64 577.83 717.53 580.19L739.08 606.94C740.05 608.14 741.43 608.89 742.97 609.04C744.51 609.19 746.01 608.72 747.19 607.73L772.25 586.63C774.65 584.61 774.96 581.01 772.95 578.6L750.15 551.43C749.15 550.23 747.73 549.51 746.17 549.41C744.61 549.31 743.11 549.82 741.96 550.87L718.15 572.38Z" />
		<path id="Layer" class="shp2" d="M625.82 564.15L624.26 562.9L635.49 548.81C636.15 547.98 635.92 547.11 635.48 546.57C635.04 546.03 634.23 545.63 633.28 546.11L620.59 552.64C618.93 553.49 617.05 553.08 615.89 551.63C614.73 550.18 614.77 548.25 615.97 546.83L627.26 533.5C627.96 532.67 627.73 531.78 627.29 531.23C626.84 530.68 626.03 530.26 625.07 530.77L592.36 547.42L591.45 545.64L624.15 528.99C625.79 528.12 627.69 528.52 628.85 529.97C630.02 531.43 629.99 533.36 628.79 534.79L617.5 548.12C616.8 548.94 617.02 549.83 617.46 550.38C617.9 550.93 618.71 551.35 619.67 550.86L632.35 544.33C633.98 543.49 635.85 543.88 637.01 545.29C638.17 546.7 638.18 548.62 637.04 550.05L625.82 564.15Z" />
		<path id="Layer" class="shp2" d="M665.67 624.25L680.26 584.88L682.14 585.58L667.54 624.94L665.67 624.25Z" />
		<path id="Layer" class="shp2" d="M701.28 594.1L703.16 593.44L720 641.27L718.11 641.93L701.28 594.1Z" />
		<path id="Layer" class="shp2" d="M700.49 626.84L702.47 626.55L705.94 650.07L703.96 650.36L700.49 626.84Z" />
		<path id="Layer" class="shp2" d="M676.37 636.33L679.96 617.48L681.93 617.86L678.33 636.7L676.37 636.33Z" />
		<path id="Layer" class="shp2" d="M518.14 240.75L519.9 239.79L538.04 273.23L536.29 274.18L518.14 240.75Z" />
		<path id="Layer" class="shp2" d="M518.09 258.11L520.01 257.56L525.62 277.05L523.69 277.6L518.09 258.11Z" />
		<path id="Layer" class="shp2" d="M509.23 272.25L510.97 242.96L512.96 243.08L511.23 272.37L509.23 272.25Z" />
		<path id="Layer" class="shp2" d="M458.11 254.32L456.18 253.8L461.32 234.58C461.64 233.37 462.73 232.62 463.98 232.75C465.22 232.88 466.13 233.85 466.2 235.09L466.77 246.6C466.79 246.92 467.01 247.02 467.15 247.05C467.29 247.08 467.53 247.09 467.68 246.8L475.1 232.16L476.88 233.06L469.47 247.7C468.95 248.72 467.86 249.24 466.74 249C465.62 248.76 464.84 247.84 464.78 246.7L464.21 235.19C464.19 234.83 463.93 234.75 463.78 234.74C463.63 234.72 463.36 234.75 463.27 235.09L458.11 254.32Z" />
		<path id="Layer" class="shp2" d="M663.39 155.65L663.7 153.68L692.97 158.34L692.66 160.32L663.39 155.65Z" />
		<path id="Layer" class="shp2" d="M664.98 164.5L665.71 162.64L693.19 173.37L692.46 175.23L664.98 164.5Z" />
		<path id="Layer" class="shp2" d="M664.58 171.66L666.1 170.36L685.53 192.94L684.01 194.24L664.58 171.66Z" />
		<path id="Layer" class="shp2" d="M636.32 706.51L636.21 706.5L579.03 699.96L579.26 697.97L636.38 704.5C637.76 704.48 638.51 703.53 638.76 702.65C639.01 701.76 638.84 700.54 637.62 699.82L571.82 668.76C569.77 667.54 569 665.25 569.86 663.13C570.72 661.01 572.88 659.9 575.1 660.44L627.29 672.05C628.79 672.41 629.78 671.53 630.18 670.66C630.57 669.81 630.61 668.52 629.45 667.62L585.73 646.01L586.62 644.22L630.57 665.96C632.63 667.47 632.77 669.83 632 671.5C631.23 673.17 629.34 674.59 626.85 674L574.66 662.39C573.09 662.01 572.1 662.96 571.72 663.89C571.34 664.81 571.39 666.18 572.76 667L638.56 698.06C640.44 699.18 641.24 701.17 640.69 703.19C640.12 705.21 638.41 706.51 636.32 706.51Z" />
		<path id="Layer" fill-rule="evenodd" class="shp2" d="M143.86 517.82C143.65 517.82 143.44 517.81 143.23 517.78C141.98 517.6 140.87 516.89 140.18 515.83L134.94 507.8C133.63 505.8 134.18 503.08 136.17 501.75L143.16 497.06C145.16 495.72 147.88 496.25 149.23 498.23L154.08 505.33C155.35 507.19 155.01 509.69 153.3 511.15L146.71 516.77C145.91 517.46 144.9 517.82 143.86 517.82ZM145.61 498.33C145.15 498.33 144.69 498.46 144.28 498.73L137.29 503.42C136.21 504.15 135.91 505.62 136.62 506.72L141.86 514.75C142.24 515.33 142.84 515.71 143.52 515.81C144.21 515.91 144.89 515.71 145.41 515.26L152 509.64C152.93 508.84 153.12 507.48 152.42 506.47L147.57 499.37C147.13 498.69 146.37 498.33 145.61 498.33Z" />
		<path id="Layer" class="shp2" d="M151.87 530.05L162.82 518.58L164.26 519.96L153.32 531.44L151.87 530.05Z" />
		<path id="Layer" class="shp2" d="M156.56 535L159.48 529.1L161.27 529.98L158.36 535.88L156.56 535Z" />
		<path id="Layer" class="shp2" d="M163.4 537.84L167.48 518.37L169.44 518.78L165.36 538.25L163.4 537.84Z" />
		<path id="Layer" class="shp2" d="M190.25 534.09C190.2 534.09 190.16 534.09 190.11 534.09C188.78 534.03 187.65 533.18 187.23 531.92L185.45 526.54L187.35 525.91L189.13 531.29C189.37 532 190 532.09 190.19 532.09C190.38 532.09 191.02 532.07 191.32 531.38L193.05 527.33C193.47 526.35 194.34 525.65 195.39 525.46C196.44 525.27 197.5 525.6 198.24 526.36L203.47 531.72C203.93 532.19 204.49 532.14 204.87 531.93C205.25 531.72 205.6 531.27 205.45 530.63L203.02 520.23L204.97 519.78L207.4 530.18C207.73 531.58 207.1 532.99 205.84 533.68C204.57 534.37 203.05 534.14 202.04 533.11L196.81 527.75C196.53 527.46 196.14 527.34 195.76 527.42C195.37 527.49 195.05 527.75 194.9 528.11L193.17 532.16C192.66 533.35 191.53 534.09 190.25 534.09Z" />
		<path id="Layer" class="shp2" d="M47.02 458.83L61.34 453.92L61.99 455.81L47.67 460.72L47.02 458.83Z" />
		<path id="Layer" class="shp2" d="M49.68 466.7L57.38 460.29L58.66 461.83L50.96 468.24L49.68 466.7Z" />
		<path id="Layer" class="shp2" d="M57.1 476.08L63.08 460.68L64.95 461.4L58.96 476.8L57.1 476.08Z" />
		<path id="Layer" class="shp2" d="M9.44 415.81C9.22 415.81 8.99 415.79 8.77 415.74L7.04 415.36L7.47 413.41L9.2 413.79C9.52 413.86 9.85 413.79 10.11 413.61C10.38 413.42 10.55 413.14 10.59 412.81L10.77 411.41C10.89 410.52 11.38 409.72 12.12 409.21C12.86 408.7 13.79 408.54 14.66 408.75L18.1 409.6C18.47 409.69 18.85 409.6 19.13 409.35C19.42 409.1 19.56 408.74 19.53 408.36L19.36 406.44C19.27 405.42 19.66 404.44 20.43 403.77C21.2 403.1 22.22 402.84 23.22 403.08L25.47 403.61C25.84 403.7 26.21 403.6 26.5 403.35C26.78 403.1 26.93 402.74 26.89 402.36C26.78 401.26 27.24 400.21 28.12 399.54C29 398.87 30.14 398.71 31.17 399.11L33.75 400.1L33.03 401.97L30.45 400.98C30.07 400.83 29.66 400.89 29.33 401.14C29 401.39 28.84 401.77 28.88 402.18C28.98 403.21 28.59 404.18 27.82 404.86C27.05 405.54 26.02 405.8 25.02 405.56L22.77 405.03C22.4 404.95 22.03 405.04 21.74 405.28C21.46 405.53 21.31 405.88 21.35 406.26L21.52 408.18C21.61 409.2 21.21 410.2 20.43 410.86C19.65 411.52 18.6 411.78 17.61 411.53L14.17 410.68C13.85 410.6 13.52 410.66 13.24 410.85C12.96 411.04 12.79 411.32 12.74 411.66L12.56 413.06C12.44 413.93 11.97 414.72 11.24 415.23C10.72 415.61 10.09 415.81 9.44 415.81Z" />
		<path id="Layer" class="shp2" d="M662.27 89.71C662.24 89.71 662.22 89.71 662.19 89.71C661.17 89.68 660.29 89.08 659.89 88.15L658.27 84.39C658.13 84.07 657.85 84.03 657.73 84.03C657.73 84.03 657.73 84.03 657.72 84.03C657.6 84.03 657.31 84.07 657.18 84.4L655.37 88.92L653.51 88.18L655.32 83.66C655.71 82.68 656.64 82.05 657.69 82.03C657.7 82.03 657.71 82.03 657.72 82.03C658.76 82.03 659.69 82.64 660.1 83.59L661.72 87.35C661.85 87.66 662.13 87.7 662.25 87.71C662.36 87.71 662.64 87.69 662.79 87.38L663.96 85.04C664.35 84.26 665.1 83.73 665.96 83.63C666.83 83.52 667.68 83.85 668.24 84.52L670.17 86.77C670.38 87.01 670.64 86.98 670.74 86.96C670.84 86.94 671.09 86.86 671.18 86.55L672.35 82.64C672.61 81.78 673.28 81.12 674.16 80.88C675.03 80.64 675.95 80.87 676.6 81.49L680.38 85.03C680.6 85.24 680.86 85.2 680.96 85.16C681.06 85.13 681.29 85.03 681.36 84.73L682.1 81.53C682.31 80.64 682.94 79.94 683.81 79.65C684.68 79.36 685.61 79.55 686.3 80.14L689.01 82.45C689.25 82.65 689.5 82.59 689.6 82.55C689.7 82.51 689.93 82.4 689.98 82.09L690.49 78.92C690.64 77.98 691.3 77.2 692.2 76.89C693.11 76.58 694.1 76.79 694.8 77.44C695.06 77.68 695.33 77.59 695.44 77.55C695.55 77.5 695.79 77.36 695.79 77.01L695.79 74.73L697.79 74.73L697.79 77.01C697.79 78.06 697.2 78.96 696.24 79.38C695.28 79.8 694.21 79.62 693.44 78.91C693.21 78.69 692.95 78.75 692.85 78.79C692.75 78.82 692.51 78.94 692.46 79.25L691.95 82.42C691.8 83.35 691.18 84.11 690.29 84.44C689.4 84.77 688.44 84.6 687.72 83.98L685.01 81.67C684.78 81.48 684.54 81.53 684.44 81.56C684.35 81.59 684.12 81.7 684.05 81.99L683.31 85.19C683.1 86.1 682.44 86.81 681.54 87.09C680.64 87.36 679.7 87.14 679.01 86.5L675.23 82.96C675.01 82.76 674.77 82.8 674.67 82.82C674.57 82.85 674.34 82.94 674.26 83.22L673.09 87.13C672.82 88.04 672.07 88.72 671.15 88.92C670.22 89.12 669.26 88.79 668.65 88.07L666.72 85.82C666.53 85.6 666.3 85.61 666.2 85.62C666.11 85.63 665.87 85.69 665.74 85.94L664.57 88.28C664.14 89.16 663.26 89.71 662.27 89.71Z" />
		<path id="Layer" class="shp2" d="M658.33 76.24L659.34 74.51L668.89 80.07L667.88 81.8L658.33 76.24Z" />
		<path id="Layer" class="shp2" d="M667.36 72.58L668.33 70.83L680.73 77.72L679.76 79.47L667.36 72.58Z" />
		<path id="Layer" class="shp2" d="M678.81 71.41L679.67 69.6L689.88 74.44L689.02 76.25L678.81 71.41Z" />
		<path id="Layer" class="shp2" d="M576.44 849.37L574.6 848.59L577.66 841.39C578.4 839.65 579.86 838.36 581.68 837.84C583.5 837.32 585.42 837.65 586.97 838.74L590.15 840.98C591.26 841.76 592.63 841.97 593.92 841.53C595.21 841.1 596.18 840.11 596.6 838.82L597.15 837.11C597.77 835.16 599.32 833.65 601.27 833.06C603.22 832.47 605.35 832.88 606.94 834.15L610.17 836.72C611.28 837.6 612.69 837.87 614.04 837.45C615.39 837.04 616.41 836.02 616.83 834.67L617.66 832C618.27 830.04 619.74 828.55 621.7 827.93C623.66 827.3 625.72 827.66 627.36 828.9L631.07 831.71C632.19 832.56 633.6 832.8 634.94 832.36C636.28 831.92 637.27 830.89 637.67 829.54L639.06 824.81C639.67 822.74 641.27 821.16 643.35 820.57C645.42 819.99 647.62 820.51 649.22 821.96L652.2 824.67C653.31 825.68 654.84 826.03 656.28 825.58C657.72 825.14 658.79 824 659.15 822.54C659.68 820.36 661.28 818.67 663.44 818.04C665.59 817.41 667.85 817.95 669.48 819.5L674.12 823.91L672.74 825.36L668.1 820.95C666.99 819.9 665.46 819.53 664 819.96C662.54 820.39 661.45 821.53 661.09 823.02C660.57 825.18 658.99 826.85 656.87 827.5C654.75 828.15 652.5 827.65 650.86 826.15L647.88 823.44C646.8 822.45 645.31 822.1 643.9 822.5C642.49 822.9 641.4 823.97 640.99 825.37L639.6 830.1C639.02 832.06 637.52 833.61 635.58 834.25C633.63 834.89 631.5 834.53 629.87 833.3L626.16 830.49C625.05 829.65 623.65 829.41 622.32 829.83C620.99 830.25 619.99 831.26 619.58 832.59L618.75 835.26C618.14 837.22 616.6 838.75 614.64 839.36C612.68 839.96 610.55 839.56 608.94 838.28L605.71 835.71C604.61 834.83 603.21 834.56 601.86 834.97C600.51 835.38 599.49 836.38 599.06 837.72L598.51 839.43C597.9 841.34 596.46 842.79 594.56 843.43C592.66 844.07 590.64 843.77 589 842.61L585.82 840.37C584.77 839.63 583.47 839.41 582.23 839.76C581 840.11 580 840.99 579.5 842.17L576.44 849.37Z" />
		<path id="Layer" class="shp2" d="M511.09 799.82L509.09 799.82L509.09 790.23C509.09 788.91 508.41 787.73 507.28 787.06C506.15 786.39 504.78 786.37 503.63 787L499.4 789.33C497.62 790.31 495.51 790.28 493.77 789.24C492.02 788.21 490.98 786.38 490.98 784.35L490.98 781.05C490.98 779.8 490.38 778.68 489.34 777.98C488.3 777.28 487.03 777.16 485.88 777.65L480.45 779.92C478.69 780.66 476.69 780.47 475.11 779.41C473.52 778.35 472.57 776.58 472.57 774.68L472.57 773.59C472.57 772.34 471.98 771.23 470.94 770.53C469.9 769.83 468.64 769.7 467.49 770.18L462.29 772.31C460.53 773.03 458.54 772.83 456.97 771.77C455.39 770.71 454.45 768.95 454.45 767.05C454.45 765.79 453.85 764.67 452.8 763.98C451.75 763.28 450.48 763.17 449.33 763.66L445.29 765.37C443.73 766.03 441.98 765.96 440.48 765.19C438.98 764.42 437.9 763.04 437.53 761.39L437.01 759.11C436.76 758.03 436.06 757.13 435.08 756.64C434.09 756.14 432.95 756.11 431.94 756.56L424.76 759.71L423.96 757.88L431.14 754.73C432.7 754.05 434.47 754.09 435.99 754.86C437.51 755.63 438.6 757.02 438.98 758.68L439.5 760.96C439.74 762.03 440.44 762.92 441.41 763.42C442.38 763.92 443.52 763.96 444.53 763.54L448.57 761.83C450.33 761.08 452.33 761.27 453.93 762.33C455.52 763.39 456.47 765.16 456.47 767.07C456.47 768.32 457.06 769.43 458.1 770.13C459.14 770.83 460.39 770.95 461.55 770.48L466.75 768.35C468.51 767.63 470.5 767.83 472.07 768.89C473.65 769.95 474.59 771.71 474.59 773.61L474.59 774.7C474.59 775.95 475.19 777.07 476.23 777.77C477.27 778.47 478.54 778.59 479.69 778.1L485.12 775.83C486.88 775.1 488.88 775.29 490.46 776.34C492.05 777.4 492.99 779.17 492.99 781.07L492.99 784.37C492.99 785.69 493.67 786.87 494.8 787.54C495.93 788.21 497.3 788.23 498.45 787.6L502.68 785.27C504.46 784.29 506.57 784.32 508.31 785.36C510.06 786.39 511.1 788.22 511.1 790.25L511.1 799.82L511.09 799.82Z" />
		<g id="Layer">
			<g id="Layer">
				<path id="Layer" class="shp2" d="M735.96 493.24C726.72 508.24 702.12 516.1 690.14 499.98C676.83 482.06 686.32 443.95 714.02 442.35C720.34 441.98 726.64 444.05 731.62 448.17C744.26 458.64 746.32 476.42 735.96 493.24Z" />
			</g>
		</g>
		<g id="Layer">
			<g id="Layer">
				<path id="Layer" class="shp7" d="M704.37 473.38C700.97 483.89 697.07 495.51 692.18 489.55C689.14 485.84 687.29 476.92 689.46 468.44C691.17 461.76 695.95 455.35 700.7 451.99C703.16 450.25 705.65 449.85 707.64 450.91C712.72 453.6 708.18 461.59 704.37 473.38Z" />
			</g>
		</g>
		<g id="Layer">
			<g id="Layer">
				<path id="Layer" class="shp7" d="M512.33 181.47C507.2 186.96 501.43 192.97 499.06 186.71C497.59 182.82 498.28 175.97 501.98 171.28C504.89 167.58 510.11 165.48 514.58 165.41C516.9 165.38 518.91 166.26 520.21 167.89C523.49 172.04 518.08 175.31 512.33 181.47Z" />
			</g>
		</g>
		<g id="Layer">
			<g id="Layer">
				<path id="Layer" class="shp7" d="M177.16 482.94C177.23 479.35 177.37 475.37 180.12 476.83C181.83 477.74 185.12 484.95 181.35 489.36C180.64 490.19 179.59 490.45 178.64 490.28C176.23 489.86 177.08 486.96 177.16 482.94Z" />
			</g>
		</g>
		<g id="Layer">
			<g id="Layer">
				<path id="Layer" class="shp2" d="M249.11 576.23C249.54 575.3 248.77 574.39 246.85 573.68C243.02 572.27 235.57 571.26 221.12 572.26C207.8 573.18 201.11 575.99 197.76 578.4C195.97 579.69 196.11 580.66 197.75 581.39C217.89 584.81 238.56 582.13 249.11 576.23Z" />
			</g>
		</g>
		<path id="Layer" class="shp2" d="M599.17 490.59C597.5 483.14 592.91 460.25 592.86 460.02L594.82 459.63C594.87 459.86 599.45 482.72 601.12 490.15L599.17 490.59Z" />
		<path id="Layer" class="shp2" d="M619.44 493.02C617.38 490.03 615.58 486.05 614.5 482.11C614.12 480.73 613.77 479.39 613.44 478.1C611.75 471.63 610.42 466.51 607.19 463.56L608.54 462.08C612.21 465.43 613.61 470.8 615.38 477.59C615.71 478.87 616.06 480.2 616.44 481.57C617.47 485.31 619.16 489.07 621.1 491.88L619.44 493.02Z" />
		<path id="Layer" class="shp2" d="M628.93 493.48L626.93 493.42C626.98 491.85 626.83 489.8 626.68 487.63C626.53 485.4 626.35 482.88 626.35 480.44C626.35 475.99 627.45 471.65 629.29 468.81L630.97 469.9C629.33 472.43 628.35 476.36 628.35 480.44C628.35 482.8 628.51 485.19 628.67 487.49C628.83 489.71 628.98 491.81 628.93 493.48Z" />
		<path id="Layer" class="shp2" d="M693.72 573.02C691.6 573.02 689.51 572.13 688.04 570.42L671.39 550.96L672.91 549.66L689.56 569.12C691.49 571.38 694.92 571.68 697.21 569.78L746.81 524.61C749.53 522.28 752.59 520.33 755.92 518.81L756.75 520.63C753.59 522.07 750.69 523.92 748.13 526.11L698.52 571.29C697.12 572.45 695.41 573.02 693.72 573.02Z" />
		<path id="Layer" class="shp2" d="M697.02 660.01C688.47 660.01 679.46 656.32 671.68 646.46L652.52 625.25L654 623.91L673.21 645.17C687.27 662.98 705.52 659.45 716.87 651.04C725.95 644.31 738.59 633.55 754.44 619.05L755.79 620.53C739.89 635.07 727.19 645.88 718.06 652.65C712.28 656.92 704.84 660.01 697.02 660.01Z" />
		<path id="Layer" class="shp2" d="M572.51 496.55C571.4 494.6 570.48 492.65 569.53 490.21L571.4 489.49C572.32 491.86 573.17 493.68 574.25 495.56L572.51 496.55Z" />
		<path id="Layer" class="shp2" d="M584.29 493.05C582.67 490.02 579.63 483.74 577.47 475.76L579.4 475.24C581.5 483.03 584.47 489.15 586.05 492.1L584.29 493.05Z" />
		<path id="Layer" class="shp2" d="M722.32 522.41C706.15 522.41 691.31 513.58 683.59 499.36L685.35 498.4C692.72 511.97 706.89 520.41 722.32 520.41L722.32 522.41Z" />
		<path id="Layer" class="shp2" d="M451.22 221.47C449.63 221.47 447.68 220.61 445.61 218.95C443.33 217.13 439.8 214.28 436.91 211.96L438.17 210.4C441.06 212.73 444.58 215.57 446.86 217.39C448.99 219.1 451.06 219.86 452.01 219.28C452.87 218.76 453.07 216.99 452.58 214.41C451.99 211.33 452.14 208.86 453.04 207.05L454.83 207.94C454.35 208.91 453.91 210.75 454.54 214.03C455.23 217.63 454.73 219.97 453.04 220.99C452.51 221.31 451.89 221.47 451.22 221.47Z" />
		<path id="Layer" class="shp2" d="M524.4 232.39L522.97 230.99L549.75 203.57C559.15 193.94 574.39 193.42 584.43 202.38L583.1 203.87C573.86 195.62 559.84 196.1 551.19 204.96L524.4 232.39Z" />
		<path id="Layer" class="shp2" d="M556.9 264.71L584.07 237.41L585.49 238.82L558.31 266.12L556.9 264.71Z" />
		<path id="Layer" class="shp2" d="M154.04 496.75L147.94 487.72C145.79 484.88 142.6 483.03 139.01 482.56C135.42 482.1 131.87 483.07 129.02 485.3L127.79 483.73C131.07 481.16 135.14 480.04 139.27 480.58C143.4 481.12 147.05 483.24 149.57 486.56L155.7 495.63L154.04 496.75Z" />
		<path id="Layer" class="shp2" d="M186.24 568.43L187.43 545.14L189.43 545.24L188.24 568.53L186.24 568.43Z" />
		<path id="Layer" class="shp2" d="M245.68 517.08L247.62 516.59L257.39 555.38L255.45 555.86L245.68 517.08Z" />
	</g>
</svg>