<svg version="1.2" baseProfile="tiny-ps" xmlns="http://www.w3.org/2000/svg" viewBox="0 0 1022 822" width="1022" height="822">
	<title>404_mobile-svg</title>
	<defs>
		<clipPath clipPathUnits="userSpaceOnUse" id="cp1">
			<path d="M333.47 254.85L745.77 353.22C769.71 358.94 785.7 381.52 783.13 405.99L744.43 774.02C742.01 797.08 721.35 813.82 698.28 811.39C698.02 811.36 697.77 811.33 697.52 811.3L302.15 762.49C280.8 759.86 264.9 741.54 265.3 720.04L273.1 301.58C273.6 274.53 295.95 253.02 323 253.52C326.53 253.58 330.04 254.03 333.47 254.85Z" />
		</clipPath>
		<clipPath clipPathUnits="userSpaceOnUse" id="cp2">
			<path d="M570.72 245.28L570.67 306.98L465.07 301.23L464.01 173.04C463.63 169.85 463.44 166.6 463.44 163.3L463.44 89.15C463.45 43.88 500.16 7.18 545.45 7.18L595.81 7.19C641.1 7.19 677.81 43.89 677.8 89.17L677.8 163.32C677.79 208.59 641.08 245.29 595.79 245.28L570.72 245.28Z" />
		</clipPath>
		<clipPath clipPathUnits="userSpaceOnUse" id="cp3">
			<path d="M570.33 245.25L570.28 306.95L464.68 301.19L463.62 173.01C463.25 169.81 463.05 166.56 463.05 163.27L463.06 89.12C463.06 43.85 499.78 7.15 545.06 7.15L595.42 7.16C640.71 7.16 677.42 43.86 677.41 89.13L677.41 163.29C677.4 208.56 640.69 245.25 595.4 245.25L570.33 245.25Z" />
		</clipPath>
		<clipPath clipPathUnits="userSpaceOnUse" id="cp4">
			<path d="M744.46 283.81C768.82 283.81 791.61 274.93 809.81 261.32C814.25 258 818.76 254.91 822.69 251.1C837.02 237.16 846.88 219.74 852.01 200.35C854.2 192.06 855.39 183.31 855.39 174.15C855.39 124.17 820.47 84.35 774.24 71.12C764.43 68.31 755.19 64.46 744.47 64.46C709.29 64.46 679.24 82.27 658.91 107.52C643.85 126.25 633.54 148.34 633.54 174.13C633.53 195.16 640.53 214.91 650.91 231.6C670.43 262.98 704.47 283.81 744.46 283.81Z" />
		</clipPath>
		<clipPath clipPathUnits="userSpaceOnUse" id="cp5">
			<path d="M510.6 531.27L666.33 388.43C670.78 384.34 676.22 381.51 682.12 380.2L679.12 393.19L733.56 374.59C740.62 372.17 748.33 375.72 751.09 382.65C751.64 384.01 752.29 385.45 753.06 386.99C758.46 397.77 758.46 407.52 753.06 416.22C760.95 418.71 765.53 424.72 766.77 434.26C768.02 443.8 765.73 451.26 759.91 456.65C769.31 474.17 762.73 495.98 745.21 505.37C744.22 505.91 743.2 506.39 742.16 506.83L738.72 508.28L615.31 549.32L591.62 591.62L510.6 531.27Z" />
		</clipPath>
		<clipPath clipPathUnits="userSpaceOnUse" id="cp6">
			<path d="M446.19 150.24C449.1 152.02 452.26 153.64 455.74 154.94C453.04 155.43 450.45 156.67 448.29 158.67C437.16 169 432.63 184.61 436.49 199.29L437.13 201.71C437.64 203.66 438.51 205.49 439.69 207.12C444.96 214.37 455.1 215.98 462.36 210.71L462.98 210.26C475.87 200.91 480.62 183.92 474.46 169.25L472.19 163.83C471.51 162.22 470.56 160.74 469.37 159.46C467.78 157.75 465.89 156.5 463.86 155.71C464.74 151.52 465.3 148.88 465.52 147.81C469.12 148.98 472.47 151.05 475.23 154.02C477.06 155.98 478.52 158.26 479.56 160.74L481.84 166.15C489.43 184.25 483.57 205.2 467.69 216.73L467.06 217.18C456.23 225.04 441.08 222.64 433.22 211.82C431.45 209.39 430.15 206.65 429.39 203.75L428.75 201.32C424.14 183.79 429.56 165.14 442.85 152.81C443.9 151.84 445.02 150.98 446.19 150.24Z" />
		</clipPath>
	</defs>
	<style>
		tspan { white-space:pre }
		.shp0 { fill: #f2ff9e } 
		.shp1 { fill: #cedf62 } 
		.shp2 { fill: #b1bf58 } 
		.shp3 { fill: #81a6ff } 
		.shp4 { fill: #ff8181 } 
		.shp5 { fill: #383838 } 
		.shp6 { fill: none;stroke: #4f72c5;stroke-linecap:round;stroke-linejoin:round;stroke-width: 2.999 } 
		.shp7 { fill: #c55858 } 
		.shp8 { fill: #8c8c8c } 
		.shp9 { fill: #898989 } 
		.shp10 { fill: #ffffff } 
		.shp11 { opacity: 0.655;fill: #e0e0e0 } 
	</style>
	<g id="Clip-Path" clip-path="url(#cp1)">
		<g id="Layer">
			<path id="Layer" class="shp0" d="M333.47 254.85L745.77 353.22C769.71 358.94 785.7 381.52 783.13 405.99L744.43 774.02C742.01 797.08 721.35 813.82 698.28 811.39C698.02 811.36 697.77 811.33 697.52 811.3L302.15 762.49C280.8 759.86 264.9 741.54 265.3 720.04L273.1 301.58C273.6 274.53 295.95 253.02 323 253.52C326.53 253.58 330.04 254.03 333.47 254.85Z" />
			<path id="Layer" fill-rule="evenodd" class="shp1" d="M264.6 702.49L509.61 528.63L595.6 594.61L477.09 797.03L271.1 777.52C267.74 755.47 265.57 738.81 264.6 727.54C263.62 716.28 263.62 707.93 264.6 702.49Z" />
		</g>
	</g>
	<path id="Layer" class="shp2" d="M498.13 295.64C498.13 295.78 498.13 295.91 498.11 296.05L487.04 376.24C492.86 377.94 497.12 383.31 497.12 389.68C497.12 397.36 490.93 403.6 483.26 403.67L476.54 452.37C482.1 454.22 486.11 459.47 486.11 465.65C486.11 473.16 480.2 479.29 472.78 479.63L460.59 567.96C460.4 569.32 459.14 570.28 457.77 570.09C456.4 569.9 455.45 568.64 455.63 567.27L467.82 478.98C462.19 477.16 458.11 471.88 458.11 465.65C458.11 458.1 464.1 451.94 471.59 451.67L478.33 402.83C472.95 400.88 469.12 395.72 469.12 389.68C469.12 382.3 474.83 376.26 482.07 375.72L493.16 295.37C493.17 295.26 493.19 295.16 493.22 295.05L352.13 347.18L441.63 280.21L544.63 304.71L586.62 395.68L498.13 295.64ZM707.23 487.48L711.99 489.03L611.22 797.82L606.47 796.27L707.23 487.48ZM386.61 617.59L266.1 701.55L273.13 295.7L293.94 352.38L386.61 617.59Z" />
	<g id="Clip-Path" clip-path="url(#cp2)">
		<g id="Layer">
			<path id="Layer" class="shp3" d="M555.39 243.96L544.63 304.71L441.63 280.71L462.86 154.29C463.04 151.08 463.41 147.85 463.99 144.6L476.87 71.58C484.74 26.99 527.27 -2.77 571.87 5.09L621.47 13.84C666.06 21.7 695.83 64.22 687.97 108.8L675.09 181.83C667.22 226.41 624.69 256.18 580.09 248.31L555.39 243.96Z" />
		</g>
	</g>
	<g id="Clip-Path" clip-path="url(#cp3)">
		<g id="Layer">
			<path id="Layer" class="shp4" d="M555.01 243.93L544.24 304.68L441.25 280.68L462.47 154.26C462.65 151.05 463.03 147.82 463.6 144.57L476.49 71.55C484.35 26.96 526.89 -2.8 571.48 5.06L621.08 13.81C665.68 21.67 695.45 64.19 687.58 108.77L674.7 181.8C666.83 226.38 624.3 256.14 579.7 248.28L555.01 243.93Z" />
			<path id="Layer" fill-rule="evenodd" class="shp5" d="M476.65 87.28L673.15 15.82L558.47 -9.17L467.65 8.24L476.65 87.28Z" />
		</g>
	</g>
	<path id="Layer" class="shp5" d="M434.44 35.67L428.57 34.42C399.4 28.22 370.72 46.84 364.52 76L363.27 81.86C357.07 111.02 375.68 139.69 404.86 145.89L410.73 147.14C439.9 153.34 468.57 134.73 474.78 105.56L476.02 99.7C482.23 70.54 463.61 41.87 434.44 35.67Z" />
	<path id="Layer" fill-rule="evenodd" class="shp5" d="M580.64 196.25L597.83 210.01C601.31 212.79 605.43 214.67 609.82 215.48L621.73 217.67C625.54 218.36 629.47 217.66 632.8 215.68L646.13 207.75L636.08 197.7C634.23 195.86 631.6 195.03 629.03 195.48L624.63 196.26L616.26 191.31C614.57 190.31 612.57 189.97 610.64 190.35L580.64 196.25Z" />
	<path id="Layer" class="shp6" d="M686.14 114.79C672.06 109.86 656.82 111.62 639.39 118.34" />
	<path id="Layer" fill-rule="evenodd" class="shp7" d="M608.2 181.6L640.63 187.89C643.34 188.41 645.97 186.64 646.5 183.93C646.64 183.17 646.61 182.38 646.4 181.64C642.63 168.11 640.58 157.58 640.25 150.04C639.86 141.11 638.2 137.45 635.25 139.05L636.64 115.09L634.14 115.09C622.38 143.9 615.88 160.39 614.64 164.57C613.86 167.17 603.32 168.38 602.25 173.53C602.05 174.48 602.36 175.84 603.16 177.62C604.1 179.68 605.98 181.17 608.2 181.6Z" />
	<path id="Layer" class="shp8" d="M730.61 294.04L713.53 290.72L667.7 526.29L684.78 529.61L730.61 294.04Z" />
	<path id="Layer" class="shp5" d="M709.15 368.42L705.54 367.71C694.15 365.5 683.13 372.93 680.92 384.31L654.52 520.04C652.3 531.42 659.74 542.44 671.12 544.66L674.73 545.36C686.11 547.57 697.14 540.14 699.35 528.76L725.75 393.03C727.97 381.65 720.53 370.63 709.15 368.42Z" />
	<path id="Layer" fill-rule="evenodd" class="shp5" d="M726.27 260.48L729.88 261.18C741.27 263.39 748.7 274.41 746.49 285.79L742.9 304.26C741.84 309.72 737.16 313.73 731.6 313.95C726.51 314.16 722.19 313.92 718.63 313.22C714.9 312.5 710.37 310.96 705.05 308.62C699.91 306.36 697.03 300.85 698.1 295.35L701.65 277.08C703.87 265.7 714.89 258.26 726.27 260.48Z" />
	<path id="Layer" fill-rule="evenodd" class="shp9" d="M638.27 241.12C617.13 207.29 615.67 167.61 627.14 132.78C635.99 105.91 651.66 81.9 677.37 65.84C697.51 53.26 718.94 48.46 740.65 47.82C753.67 47.43 766.94 47.34 779.64 51.32C792.46 55.34 809.1 63.04 820.64 71.32C834.52 81.28 842.81 92.69 852.11 107.57C863.64 126.01 869.63 146.58 871.14 166.79C871.94 177.49 870.06 191.7 868.13 201.77C865.21 216.98 860.56 227.63 852.13 241.26C842.44 256.92 829.72 272.42 813.01 282.86C800.4 290.74 787.16 296.49 773.63 299.23C753.58 303.29 732.93 301.44 713.13 295.73C699.94 291.93 684.92 285.43 673.13 277.73C658.66 268.28 647.97 256.63 638.27 241.12ZM653.01 232.24C685.01 283.44 752.15 299.22 802.96 267.48C853.78 235.74 869.04 168.51 837.04 117.31C805.03 66.11 737.91 50.33 687.08 82.07C636.27 113.81 621.02 181.04 653.01 232.24Z" />
	<g id="Clip-Path" clip-path="url(#cp4)">
		<g id="Layer">
			<path id="Layer" class="shp10" d="M651.42 232.25C664.32 252.9 683.94 267.52 705.13 275.74C710.3 277.74 715.31 279.93 720.63 281.24C740.04 286 760.05 285.13 779.22 279.21C787.42 276.67 795.46 273.03 803.24 268.18C845.63 241.7 860.9 190.99 847.64 144.79C844.82 134.99 843.19 125.11 837.51 116.03C818.87 86.2 787.83 70.16 755.64 66.31C731.77 63.46 707.57 66.43 685.69 80.1C667.84 91.24 654.8 107.64 646.14 125.28C629.87 158.46 630.23 198.35 651.42 232.25Z" />
			<path id="Layer" fill-rule="evenodd" class="shp11" d="M764.69 156.52C759.92 154.5 756.33 153.39 751.04 152.26C745.52 151.09 740.2 150.87 734.74 150.8C728.38 150.73 722.28 151.9 716 153.33C710.66 154.56 702.64 157.46 691.95 162.04C699.16 170.33 704.82 176.07 708.94 179.26C715.22 184.13 721.14 188.75 728.47 191.58C731.5 192.75 735.16 194.04 738.66 195.02L681.1 280.17L635.39 216.69L799.91 44.25L825.22 66.97L764.69 156.52ZM782.05 166.4C779.76 164.7 777.29 163.07 774.73 161.57L833.31 76.35L839.63 78.28L782.05 166.4ZM761.86 197.3L696.69 297.03L691.12 283.23L750.32 197.08C751.91 197.22 753.5 197.31 755.14 197.4C757.39 197.52 759.62 197.47 761.86 197.3Z" />
			<path id="Layer" fill-rule="evenodd" class="shp5" d="M764.87 199.74C761.51 200.12 758.32 200.2 755.08 200C751.15 199.75 748.28 199.49 745.59 199.07L740.73 223.61C740.47 224.94 739.15 225.79 737.79 225.51C736.43 225.22 735.54 223.9 735.8 222.57L740.65 198.09C736.75 197.14 732.1 195.6 727.48 193.8C725.41 192.99 723.44 192.07 721.43 190.96L706.96 203.14C705.91 204.02 704.33 203.88 703.41 202.84C702.5 201.79 702.61 200.23 703.65 199.35L716.9 188.21C715.48 187.28 714.02 186.25 712.48 185.12C710.99 184.02 709.86 183.17 707.11 181.05C702.79 177.73 696.95 171.89 689.53 163.49C688.4 162.22 688.84 160.25 690.4 159.61C701.21 155.12 709.35 152.28 714.88 151.09C722.96 149.34 728.44 148.59 734.26 148.71C741.33 148.86 746.09 149.28 751.12 150.38C756.74 151.61 760.53 152.82 765.61 154.99C771.8 157.65 778.09 161.23 783.41 165.16C788.06 168.61 794.72 175 803.44 184.39C804.61 185.65 804.21 187.64 802.65 188.31C794.63 191.79 788.6 194.13 784.52 195.34C778.98 196.98 774.28 198.18 770 198.97L776.47 212.78C777.05 214.03 776.51 215.49 775.25 216.04C774 216.6 772.5 216.03 771.92 214.78L764.87 199.74ZM782.99 190.59C786.29 189.62 791.1 187.8 797.37 185.14C790.03 177.36 784.37 172 780.45 169.1C775.46 165.41 769.52 162.03 763.68 159.53C758.91 157.48 755.43 156.37 750.13 155.21C745.48 154.19 741.01 153.81 734.25 153.66C728.91 153.55 723.77 154.25 716.05 155.92C711.41 156.93 704.58 159.24 695.6 162.87C701.72 169.65 706.58 174.43 710.14 177.17C712.87 179.26 713.98 180.1 715.43 181.17C720.63 184.99 724.75 187.45 729.24 189.2C734.13 191.11 739.04 192.71 742.88 193.55C746.54 194.35 749.79 194.72 755.29 195.06C763.24 195.56 771 194.14 782.99 190.59ZM744.99 184.57C741.86 183.88 738.36 180.43 736.91 177.71C735.68 175.4 735.9 172.94 736.48 170.13C737.07 167.29 738.48 165.24 740.55 163.65C742.93 161.81 746.14 160.69 749.24 161.37C752.77 162.14 757.39 163.8 758.7 167.04C759.55 169.11 760.45 173.19 759.96 175.58C759.48 177.9 757.57 180.23 756.04 181.76C753.55 184.24 748.58 185.35 744.99 184.57Z" />
		</g>
	</g>
	<path id="Layer" fill-rule="evenodd" class="shp10" d="M537.32 115.3C539.78 127.64 549.91 136.67 567.69 142.4C585.47 148.12 598.9 146.4 607.97 137.22C601.42 122.51 592.01 113.23 579.75 109.39C567.5 105.55 553.35 107.52 537.32 115.3Z" />
	<path id="Layer" fill-rule="evenodd" class="shp5" d="M583.48 136.75C586.38 136.96 589.24 135.57 590.94 133.19C591.99 131.74 592.48 129.86 592.62 127.87C592.77 125.83 592.57 123.98 591.7 122.37C590.33 119.85 587.66 118.01 584.81 117.81C582.3 117.63 579.78 118.23 578.09 120.06C576.63 121.64 575.83 124.26 575.66 126.69C575.5 129.09 575.94 131.83 577.15 133.59C578.56 135.66 580.95 136.58 583.48 136.75Z" />
	<path id="Layer" fill-rule="evenodd" class="shp7" d="M536.9 115.38C556.69 117.35 572.03 120 582.91 123.33C593.79 126.66 602.34 131.31 608.54 137.29C605.61 122.21 595.88 112.3 579.36 107.54C562.84 102.78 548.68 105.39 536.9 115.38Z" />
	<path id="Layer" fill-rule="evenodd" class="shp5" d="M613.96 132.34L568.14 91.29L571.14 75.8L627.14 128.28C626.07 132.59 621.72 135.23 617.4 134.16C616.12 133.85 614.94 133.22 613.96 132.34Z" />
	<path id="Layer" fill-rule="evenodd" class="shp5" d="M441.63 280.21L420.31 214.77C411.19 186.78 417.21 156.07 436.22 133.6L476.65 85.79L441.63 280.21Z" />
	<g id="Clip-Path" clip-path="url(#cp5)">
		<g id="Layer">
			<path id="Layer" class="shp4" d="M510.6 531.27L666.33 388.43C670.78 384.34 676.22 381.51 682.12 380.2L679.12 393.19L733.56 374.59C740.62 372.17 748.33 375.72 751.09 382.65C751.64 384.01 752.29 385.45 753.06 386.99C758.46 397.77 758.46 407.52 753.06 416.22C760.95 418.71 765.53 424.72 766.77 434.26C768.02 443.8 765.73 451.26 759.91 456.65C769.31 474.17 762.73 495.98 745.21 505.37C744.22 505.91 743.2 506.39 742.16 506.83L738.72 508.28L615.31 549.32L591.62 591.62L510.6 531.27Z" />
			<path id="Layer" fill-rule="evenodd" class="shp7" d="M683.12 391.69L645.61 407.68C653.21 396.61 659.88 388.78 665.62 384.19C671.36 379.61 678.02 376.78 685.62 375.7L683.12 391.69Z" />
			<path id="Layer" class="shp7" d="M758.71 456.47C759.37 455.98 760.31 456.12 760.81 456.78C761.3 457.44 761.16 458.38 760.5 458.88C756.18 462.11 751 464.52 744.99 466.12C744.19 466.33 743.37 465.86 743.15 465.06C742.94 464.26 743.42 463.44 744.22 463.22C749.87 461.72 754.7 459.46 758.71 456.47ZM751.25 415.4C751.93 414.92 752.86 415.07 753.35 415.75C753.83 416.42 753.67 417.36 753 417.84C748.51 421.05 743.22 423.36 737.13 424.75C736.33 424.94 735.52 424.43 735.34 423.62C735.15 422.82 735.66 422.01 736.46 421.83C742.17 420.52 747.1 418.38 751.25 415.4Z" />
		</g>
	</g>
	<path id="Layer" fill-rule="evenodd" class="shp4" d="M467.64 156.76C488.08 156.76 504.64 140.87 504.64 121.27C504.65 101.68 488.08 85.79 467.65 85.78C447.21 85.78 430.65 101.67 430.64 121.27C430.64 136.59 440.76 149.64 454.94 154.61C458.9 156 463.18 156.76 467.64 156.76Z" />
	<g id="Clip-Path" clip-path="url(#cp6)">
		<g id="Layer">
			<path id="Layer" class="shp0" d="M446.19 150.24C449.1 152.02 452.26 153.64 455.74 154.94C453.04 155.43 450.45 156.67 448.29 158.67C437.16 169 432.63 184.61 436.49 199.29L437.13 201.71C437.64 203.66 438.51 205.49 439.69 207.12C444.96 214.37 455.1 215.98 462.36 210.71L462.98 210.26C475.87 200.91 480.62 183.92 474.46 169.25L472.19 163.83C471.51 162.22 470.56 160.74 469.37 159.46C467.78 157.75 465.89 156.5 463.86 155.71C464.74 151.52 465.3 148.88 465.52 147.81C469.12 148.98 472.47 151.05 475.23 154.02C477.06 155.98 478.52 158.26 479.56 160.74L481.84 166.15C489.43 184.25 483.57 205.2 467.69 216.73L467.06 217.18C456.23 225.04 441.08 222.64 433.22 211.82C431.45 209.39 430.15 206.65 429.39 203.75L428.75 201.32C424.14 183.79 429.56 165.14 442.85 152.81C443.9 151.84 445.02 150.98 446.19 150.24Z" />
			<path id="Layer" fill-rule="evenodd" class="shp1" d="M431.14 132.77L467.64 129.27L449.13 244.73L416.63 236.73L431.14 132.77Z" />
		</g>
	</g>
	<path id="Layer" fill-rule="evenodd" class="shp5" d="M204.55 133.43L167.45 94.22L191.61 147.22C143.29 145.2 119.14 144.2 119.14 144.2C119.14 144.2 143.29 152.38 191.61 168.76L167.44 228.64L204.55 179.1L231.29 240.71L226.12 173.5L295.13 181.69L231.29 159.28L295.14 122.24L226.12 138.17L226.12 62.77L204.55 133.43ZM923.9 413.65L974.29 463.46L940.22 394.94C999.09 379.02 1028.53 371.06 1028.53 371.06C1028.53 371.06 998.76 369.59 939.23 366.64L968.14 286.86L921.8 353.65L883.94 273.92L893.8 361.99L807.96 329.96L880.88 383.69L821.51 441.84L895.42 408.41L898.87 507.46L923.9 413.65Z" />
	<path id="Layer" fill-rule="evenodd" class="shp5" d="M125.99 432.61L144.95 479.58L108.22 474.73L143.99 492.52C117.31 512.34 103.96 522.25 103.96 522.25C103.96 522.25 120.4 516.17 153.28 503.99L166.21 546.34L164.66 503.9L205.53 525.16L173.77 491.59L214.18 466.1L170.4 481.78L188.53 434.43L158.52 472.77L125.99 432.61Z" />
	<path id="Layer" class="shp5" d="M145.76 588.07C200.71 573.36 233.32 516.9 218.6 461.97C203.89 407.05 147.41 374.45 92.46 389.16C37.51 403.87 4.9 460.33 19.62 515.26C34.34 570.19 90.81 602.79 145.76 588.07Z" />
	<path id="Layer" fill-rule="evenodd" class="shp10" d="M92.98 501.33L95.42 510.43L87.04 512.68L88.86 519.5L78.08 522.39L76.26 515.56L46.67 523.49L44.23 514.39L66.85 480.48L77.64 477.6L84.6 503.58L92.98 501.33ZM55.85 511.28L73.82 506.46L69.74 491.26L55.85 511.28ZM124.78 510.53C108.13 514.99 98.17 509.44 94.43 495.49C90.71 481.6 96.58 471.88 113.23 467.42C129.82 462.98 139.84 468.51 143.54 482.34C147.26 496.23 141.37 506.09 124.78 510.53ZM122.36 501.49C131.82 498.95 134.86 493.07 132.76 485.23C130.68 477.45 125.11 473.93 115.65 476.46C106.19 479 103.11 484.76 105.21 492.6C107.33 500.51 112.89 504.02 122.36 501.49ZM197.19 473.43L199.63 482.53L191.24 484.78L193.07 491.6L182.29 494.49L180.46 487.66L150.88 495.58L148.44 486.48L171.06 452.58L181.84 449.69L188.8 475.68L197.19 473.43ZM160.06 483.37L178.02 478.56L173.95 463.36L160.06 483.37Z" />
	<path id="Layer" fill-rule="evenodd" class="shp7" d="M579.14 156.77C579.51 155.15 578.96 153.34 576.81 152.85C574.66 152.35 573.51 153.15 573.14 154.77C572.76 156.38 573.31 158.19 575.46 158.69C577.61 159.19 578.76 158.38 579.14 156.77ZM600.14 155.77C600.51 154.16 599.97 152.34 597.81 151.85C595.66 151.35 594.51 153.16 594.14 154.77C593.77 156.38 594.31 157.2 596.46 157.69C598.62 158.19 599.77 157.38 600.14 155.77ZM591.14 166.27C591.51 164.65 590.96 163.34 588.81 162.84C586.66 162.35 585.51 163.15 585.13 164.77C584.76 166.38 585.31 168.19 587.46 168.69C589.61 169.19 590.76 167.88 591.14 166.27ZM570.63 169.26C571.01 167.65 570.96 166.34 568.81 165.84C566.66 165.34 565.01 167.15 564.63 168.76C564.26 170.38 565.31 171.19 567.46 171.69C569.61 172.18 570.26 170.88 570.63 169.26ZM557.14 153.27C557.51 151.65 556.96 149.34 554.81 148.85C552.66 148.35 551.01 149.65 550.64 151.27C550.26 152.88 551.31 154.19 553.46 154.69C555.61 155.19 556.76 154.88 557.14 153.27Z" />
</svg>